<svg width="367" height="372" viewBox="0 0 367 372" fill="none" xmlns="http://www.w3.org/2000/svg">
<g clip-path="url(#clip0_9_5)">
<path d="M60.8478 205.452C60.8478 205.452 53.1238 207.493 59.6228 224.166C66.1219 240.839 70.9366 249.261 70.9366 249.261C70.9366 249.261 71.9999 253.089 68.844 253.344C65.688 253.599 58.9678 251.83 57.2069 255.487C55.4461 259.145 57.8619 263.271 63.3317 267.107C68.8014 270.944 80.464 279.799 81.5188 280.599C82.5736 281.399 83.4838 283.219 81.3572 283.738C79.2305 284.257 63.723 284.316 64.1909 291.675C64.6587 299.033 81.6464 307.225 83.4838 308.16C85.3213 309.096 85.6956 309.947 85.4404 310.976C85.1852 312.005 79.9621 311.546 75.5472 311.742C71.1322 311.937 66.0538 312.941 66.6833 317.16C67.3128 321.38 76.8912 331.094 101.986 336.122L113.776 337.695L121.219 328.338C135.919 307.369 136.157 293.742 133.698 290.254C131.24 286.766 126.893 289.539 123.533 292.44C120.173 295.341 116.728 299.245 115.877 298.718C115.026 298.191 114.652 297.263 115.341 295.315C116.03 293.367 122.682 275.75 117.944 270.076C113.206 264.402 101.935 275.087 100.038 276.167C98.1407 277.247 97.5538 275.316 97.7579 274.006C97.9621 272.696 100.31 258.244 101.62 251.693C102.93 245.143 101.969 240.541 98.0302 239.053C94.2362 237.624 90.5954 243.544 88.1285 245.535C85.6615 247.525 83.7986 244.021 83.7986 244.021C83.7986 244.021 81.4763 234.604 74.6795 218.05C67.8827 201.496 60.7202 205.477 60.7202 205.477" fill="#EBEBEB"/>
<path d="M114.108 340.536C109.165 328.363 100.727 306.57 93.4024 287.898C86.0782 269.226 79.4261 252.34 74.5433 240.141C72.0934 234.059 70.1198 229.083 68.7418 225.68L67.168 221.75L66.7682 220.729C66.7191 220.613 66.6765 220.493 66.6406 220.372C66.6406 220.372 66.7002 220.483 66.8023 220.712C66.9043 220.942 67.0489 221.291 67.2361 221.725L68.8779 225.629C70.29 229.032 72.2805 233.94 74.7815 240.031C79.7238 252.204 86.4185 269.081 93.7512 287.753C101.084 306.425 109.463 328.227 114.354 340.426" fill="#E0E0E0"/>
<path d="M66.5044 258.346C66.7817 258.421 67.0499 258.526 67.304 258.66C67.8144 258.882 68.5375 259.222 69.4222 259.647C71.2 260.498 73.6244 261.765 76.2785 263.203L83.0838 266.895L85.1424 267.992C85.4044 268.112 85.6526 268.261 85.8825 268.435C85.6051 268.355 85.3348 268.253 85.0743 268.128C84.5724 267.907 83.8494 267.558 82.9647 267.125C81.1953 266.274 78.7879 264.955 76.1594 263.526L69.3541 259.885L67.2955 258.788C67.0128 258.678 66.7466 258.529 66.5044 258.346Z" fill="#E0E0E0"/>
<path d="M86.7332 267.754C86.6396 267.712 89.0044 262.599 92.0158 256.338C95.0271 250.077 97.5365 245.033 97.6301 245.075C97.7237 245.118 95.3588 250.239 92.3475 256.5C89.3362 262.761 86.8267 267.805 86.7332 267.754Z" fill="#E0E0E0"/>
<path d="M96.6943 296.932C96.8547 296.687 97.04 296.459 97.2473 296.252L98.8465 294.474C100.191 292.977 102.036 290.893 103.95 288.519C105.864 286.146 107.608 283.951 108.825 282.343C109.403 281.595 109.88 280.957 110.271 280.446C110.431 280.201 110.62 279.976 110.832 279.774C110.716 280.044 110.568 280.298 110.39 280.532C110.075 280.999 109.624 281.68 109.037 282.505C107.872 284.147 106.205 286.384 104.24 288.757C102.275 291.131 100.395 293.198 98.9996 294.652C98.3021 295.376 97.7321 295.962 97.2983 296.354C97.1181 296.567 96.9156 296.761 96.6943 296.932Z" fill="#E0E0E0"/>
<path d="M76.5254 292.449C76.8118 292.443 77.0977 292.475 77.3761 292.542L79.5452 292.934C81.3742 293.283 83.9006 293.784 86.6823 294.371C89.4639 294.958 91.9734 295.503 93.7938 295.911L95.9375 296.421C96.207 296.469 96.4697 296.549 96.7201 296.66C96.4337 296.665 96.1477 296.634 95.8694 296.566L93.7002 296.166C91.8628 295.817 89.3449 295.316 86.5632 294.737C83.7815 294.159 81.2636 293.606 79.4517 293.189L77.2995 292.687C77.0325 292.64 76.7724 292.56 76.5254 292.449Z" fill="#E0E0E0"/>
<path d="M82.0122 319.33C82.3616 319.343 82.709 319.389 83.05 319.466L85.8317 319.96C88.1795 320.393 91.4205 321.014 94.9848 321.72C98.5491 322.426 101.79 323.098 104.129 323.6L106.886 324.204C107.228 324.263 107.564 324.354 107.889 324.477C107.543 324.469 107.198 324.426 106.86 324.349L104.078 323.856C101.731 323.422 98.4895 322.801 94.9167 322.086C91.344 321.372 88.1114 320.708 85.7806 320.215L83.016 319.602C82.6742 319.54 82.3384 319.449 82.0122 319.33Z" fill="#E0E0E0"/>
<path d="M107.345 324.17C107.543 323.867 107.768 323.582 108.017 323.319L109.956 320.997C111.598 319.032 113.844 316.31 116.243 313.23C118.642 310.151 120.743 307.327 122.248 305.26L124.035 302.81C124.242 302.508 124.472 302.224 124.724 301.959C124.566 302.295 124.375 302.614 124.154 302.912C123.762 303.516 123.193 304.375 122.452 305.464C120.998 307.565 118.931 310.432 116.498 313.511C114.065 316.59 111.811 319.287 110.126 321.218C109.276 322.171 108.587 322.919 108.093 323.464C107.863 323.718 107.612 323.954 107.345 324.17Z" fill="#E0E0E0"/>
<path d="M341.336 320.835C339.852 321.733 338.134 322.171 336.401 322.092C334.668 322.014 332.997 321.423 331.599 320.395C330.202 319.367 329.141 317.948 328.55 316.316C327.96 314.685 327.866 312.915 328.282 311.231C328.697 309.546 329.603 308.023 330.884 306.853C332.166 305.684 333.765 304.92 335.48 304.66C337.196 304.4 338.95 304.654 340.52 305.39C342.091 306.127 343.408 307.313 344.305 308.798C344.901 309.783 345.297 310.876 345.47 312.015C345.644 313.153 345.591 314.314 345.315 315.432C345.04 316.55 344.546 317.602 343.863 318.53C343.181 319.457 342.322 320.24 341.336 320.835Z" fill="white"/>
<path d="M342.315 331.57C341.569 331.573 340.826 331.481 340.103 331.298C337.85 330.735 335.897 329.334 334.642 327.38C333.387 325.427 332.925 323.068 333.349 320.785C333.773 318.502 335.052 316.467 336.925 315.095C338.798 313.723 341.124 313.117 343.428 313.4C345.733 313.684 347.842 314.836 349.327 316.622C350.811 318.407 351.558 320.691 351.416 323.009C351.274 325.327 350.254 327.503 348.562 329.094C346.871 330.684 344.637 331.57 342.315 331.57ZM342.315 314.03C340.837 314.032 339.387 314.427 338.112 315.174C336.838 315.921 335.784 316.992 335.059 318.28C334.334 319.567 333.964 321.024 333.986 322.501C334.009 323.978 334.423 325.423 335.186 326.687C336.33 328.561 338.164 329.91 340.293 330.444C342.423 330.977 344.677 330.651 346.568 329.537C347.98 328.683 349.108 327.429 349.808 325.935C350.508 324.44 350.748 322.771 350.5 321.139C350.251 319.508 349.524 317.986 348.411 316.768C347.298 315.549 345.848 314.688 344.246 314.293C343.596 314.123 342.927 314.034 342.255 314.03H342.315Z" fill="white"/>
<path d="M262.352 255.207L256.313 258.847L255.938 258.235L261.425 254.917L260.575 253.497L261.128 253.165L262.352 255.207Z" fill="white"/>
<path d="M260.651 264.726L260.098 265.057L257.546 260.804L257.98 260.532L261.952 261.561C262.269 261.693 262.611 261.753 262.954 261.737C263.297 261.721 263.631 261.629 263.934 261.468C264.632 261.042 264.785 260.294 264.215 259.375C264.043 259.053 263.801 258.775 263.506 258.56C263.212 258.344 262.872 258.199 262.514 258.133L262.624 257.461C263.08 257.556 263.508 257.75 263.88 258.03C264.252 258.309 264.558 258.667 264.777 259.077C265.517 260.302 265.363 261.459 264.36 262.063C263.982 262.272 263.562 262.394 263.131 262.421C262.7 262.447 262.268 262.377 261.867 262.216L258.609 261.365L260.651 264.726Z" fill="white"/>
<path d="M148.619 0C147.972 9.18714 148.619 26.3024 145.276 34.8771C141.933 43.4518 137.467 52.2986 129.113 56.1436C118.803 60.8733 106.69 58.8657 95.6908 61.6389C78.4564 65.9773 65.9857 81.7911 60.6691 98.7532C55.3524 115.715 55.9394 133.886 56.5774 151.647L144.536 163.846C144.536 163.846 144.995 128.118 152.668 118.344C160.341 108.57 196.792 99.7996 208.812 73.0803C219.649 49.0321 222.916 10.897 222.916 10.897L148.619 0Z" fill="#F5F5F5"/>
<path d="M170.107 24.1505L168.967 22.0494C168.808 22.0614 168.649 22.0614 168.49 22.0494L166.874 21.8537L166.636 23.7592L166.006 23.6826L166.746 17.6685L168.992 17.9492C170.523 18.1363 171.348 19.0295 171.195 20.314C171.159 20.7376 170.981 21.1364 170.689 21.4454C170.397 21.7544 170.008 21.9553 169.588 22.0153L170.796 24.2526L170.107 24.1505ZM170.557 20.2034C170.676 19.2422 170.107 18.6127 168.907 18.5021L167.308 18.3065L166.942 21.3178L168.533 21.5134C169.741 21.5985 170.481 21.1562 170.557 20.2119V20.2034Z" fill="#E0E0E0"/>
<path d="M176.521 24.3971L176.453 24.9416L172.199 24.4227L172.939 18.417L177.056 18.9189L176.988 19.4718L173.518 19.0465L173.254 21.1901L176.359 21.5729L176.291 22.1089L173.186 21.7261L172.905 23.9548L176.521 24.3971Z" fill="#E0E0E0"/>
<path d="M177.746 22.0576C177.791 21.6457 177.92 21.2473 178.124 20.8869C178.329 20.5265 178.605 20.2116 178.935 19.9615C179.266 19.7115 179.644 19.5315 180.046 19.4327C180.449 19.3338 180.867 19.3181 181.276 19.3866C181.684 19.4219 182.081 19.5423 182.44 19.7401C182.798 19.9378 183.112 20.2086 183.36 20.535L182.909 20.8922C182.708 20.6251 182.452 20.4037 182.159 20.2424C181.865 20.0812 181.541 19.9837 181.208 19.9565C180.874 19.9014 180.533 19.9142 180.205 19.9942C179.877 20.0741 179.568 20.2195 179.297 20.4217C179.026 20.6239 178.799 20.8787 178.629 21.1708C178.46 21.4629 178.35 21.7863 178.309 22.1217C178.267 22.457 178.293 22.7973 178.386 23.1222C178.479 23.4471 178.636 23.7499 178.849 24.0124C179.062 24.2749 179.325 24.4918 179.624 24.6499C179.923 24.8081 180.25 24.9043 180.587 24.9329C180.916 24.9861 181.254 24.9689 181.576 24.8824C181.899 24.7959 182.199 24.642 182.458 24.431L182.807 24.8903C182.485 25.1464 182.112 25.3324 181.714 25.4364C181.315 25.5404 180.9 25.5601 180.493 25.4943C180.084 25.4577 179.686 25.3386 179.324 25.1441C178.961 24.9497 178.642 24.6839 178.386 24.3627C178.129 24.0416 177.94 23.6718 177.83 23.2757C177.72 22.8795 177.691 22.4652 177.746 22.0576Z" fill="#E0E0E0"/>
<path d="M188.396 25.8514L188.328 26.4043L184.091 25.8514L184.831 19.8457L188.949 20.3561L188.881 20.9005L185.393 20.4752L185.129 22.6104L188.234 22.9931L188.174 23.5376L185.07 23.1548L184.789 25.3835L188.396 25.8514Z" fill="#E0E0E0"/>
<path d="M190.565 20.5859L191.194 20.671L190.454 26.7022L189.816 26.6171L190.565 20.5859Z" fill="#E0E0E0"/>
<path d="M197.6 23.5462C197.439 24.8307 196.418 25.4857 194.895 25.2986L193.279 25.0944L193.049 26.9914L192.411 26.9148L193.151 20.9092L195.397 21.1899C196.928 21.377 197.762 22.2617 197.6 23.5462ZM196.962 23.4697C197.081 22.5084 196.52 21.8874 195.312 21.7683L193.721 21.5727L193.347 24.5755L194.946 24.7712C196.146 24.8903 196.852 24.4139 196.962 23.4697Z" fill="#E0E0E0"/>
<path d="M200.126 22.3296L198.017 22.0659L198.085 21.5215L202.942 22.1169L202.874 22.6699L200.764 22.4487L200.092 27.9099L199.454 27.8249L200.126 22.3296Z" fill="#E0E0E0"/>
<path d="M190.625 38.824C190.625 38.9515 182.586 37.9733 172.718 36.6122C162.851 35.2512 154.854 34.0602 154.854 33.9582C154.854 33.8561 162.885 34.8088 172.718 36.1699C182.552 37.5309 190.633 38.7049 190.625 38.824Z" fill="#E0E0E0"/>
<path d="M189.655 45.9865C189.655 46.1141 181.625 45.1359 171.791 43.7748C161.957 42.4138 153.927 41.2228 153.927 41.1208C153.927 41.0187 161.957 41.9714 171.791 43.3325C181.625 44.6935 189.672 45.8675 189.655 45.9865Z" fill="#E0E0E0"/>
<path d="M186.38 53.2941C186.38 53.4132 178.349 52.4434 168.516 51.0824C158.682 49.7213 150.652 48.5304 150.652 48.4198C150.652 48.3092 158.674 49.2704 168.516 50.64C178.358 52.0096 186.397 53.175 186.38 53.2941Z" fill="#E0E0E0"/>
<path d="M180.417 60.6609C180.417 60.7885 172.387 59.8102 162.51 58.4491C152.634 57.0881 144.646 55.8972 144.646 55.7951C144.646 55.693 152.677 56.6457 162.553 58.0068C172.429 59.3679 180.434 60.5418 180.417 60.6609Z" fill="#E0E0E0"/>
<path d="M170.915 68.019C170.915 68.1381 162.885 67.1683 153.051 65.7988C143.217 64.4292 135.187 63.2468 135.187 63.1447C135.187 63.0426 143.217 63.9954 153.051 65.3649C162.885 66.7345 170.932 67.8914 170.915 68.019Z" fill="#E0E0E0"/>
<path d="M206.642 41.2145C203.693 41.0311 200.77 40.5553 197.915 39.7939C199.396 39.8138 200.872 39.979 202.321 40.2873C203.789 40.4517 205.236 40.7623 206.642 41.2145Z" fill="#E0E0E0"/>
<path d="M206.336 47.603C204.863 47.5843 203.396 47.4219 201.955 47.1181C200.487 46.9538 199.04 46.6432 197.634 46.1909C199.113 46.2011 200.587 46.3664 202.032 46.6843C203.493 46.8495 204.935 47.1572 206.336 47.603Z" fill="#E0E0E0"/>
<path d="M204.167 56.4753C202.685 56.4489 201.21 56.278 199.761 55.9649C198.298 55.78 196.853 55.4756 195.439 55.0547C195.439 54.9016 197.43 55.1313 199.837 55.5226C201.309 55.6943 202.76 56.0135 204.167 56.4753Z" fill="#E0E0E0"/>
<path d="M201.037 63.9187C199.555 63.8923 198.079 63.7214 196.63 63.4083C195.168 63.2221 193.723 62.9177 192.309 62.4981C192.309 62.345 194.3 62.5746 196.707 62.9659C198.179 63.1365 199.629 63.4557 201.037 63.9187Z" fill="#E0E0E0"/>
<path d="M194.3 71.0216C192.818 70.9956 191.342 70.8247 189.893 70.5112C188.429 70.3312 186.984 70.0267 185.572 69.601C185.572 69.4479 187.562 69.6776 189.961 70.0774C191.435 70.2484 192.888 70.5647 194.3 71.0216Z" fill="#E0E0E0"/>
<path d="M162.825 77.0021C162.825 77.1212 150.78 75.5219 135.961 73.4208C121.143 71.3196 109.131 69.5247 109.148 69.4057C109.165 69.2866 121.194 70.8858 136.021 72.9869C150.848 75.0881 162.825 76.8915 162.825 77.0021Z" fill="#E0E0E0"/>
<path d="M156.581 84.5473C156.382 84.5418 156.183 84.5247 155.986 84.4962L154.284 84.2751L148.074 83.3649L127.607 80.2174C119.62 78.9584 112.398 77.7845 107.192 76.9083L101.007 75.845C100.276 75.7089 99.7143 75.6068 99.306 75.5218C99.108 75.4929 98.9139 75.4415 98.7275 75.3687C98.9275 75.3756 99.1266 75.3984 99.323 75.4367L101.024 75.6749L107.234 76.6021L127.701 79.7751L148.117 83.0586L154.301 84.1049L156.003 84.4112C156.2 84.4322 156.395 84.4779 156.581 84.5473Z" fill="#E0E0E0"/>
<path d="M145.353 91.4035C144.61 91.4207 143.869 91.3551 143.141 91.2078C141.703 91.0207 139.619 90.7315 137.042 90.3572C131.895 89.6171 124.792 88.5368 116.958 87.3118C109.123 86.0869 102.02 84.9385 96.8904 84.0878L90.8167 83.067L89.1749 82.7608C88.9804 82.7371 88.7892 82.6914 88.605 82.6247C88.7991 82.6188 88.9933 82.6359 89.1834 82.6757L90.8422 82.8884L96.9415 83.739L117.026 86.8269L137.093 90.0084L145.353 91.4035Z" fill="#E0E0E0"/>
<path d="M183.062 81.1448C181.58 81.1184 180.105 80.9474 178.656 80.6343C177.193 80.4482 175.748 80.1438 174.334 79.7241C174.334 79.571 176.325 79.8007 178.732 80.192C180.204 80.3613 181.655 80.6805 183.062 81.1448Z" fill="#E0E0E0"/>
<path d="M174.394 85.9592C172.912 85.9328 171.436 85.7619 169.987 85.4488C168.525 85.2626 167.08 84.9583 165.666 84.5386C165.666 84.3855 167.657 84.6152 170.064 85.0065C171.536 85.1757 172.987 85.495 174.394 85.9592Z" fill="#E0E0E0"/>
<path d="M162.723 94.0832C161.241 94.0568 159.765 93.8858 158.316 93.5728C156.853 93.3915 155.407 93.0871 153.995 92.6625C153.995 92.5094 155.986 92.7391 158.393 93.1389C159.864 93.3079 161.315 93.6242 162.723 94.0832Z" fill="#E0E0E0"/>
<path d="M140.418 106.911C140.418 107.039 125.523 104.844 107.243 102.029C88.962 99.2128 74.0669 96.8225 74.0669 96.7034C74.0669 96.5843 88.9535 98.7705 107.243 101.595C125.532 104.419 140.435 106.792 140.418 106.911Z" fill="#E0E0E0"/>
<path d="M131.512 123.014C131.512 123.133 126.612 122.444 120.624 121.474C114.635 120.504 109.786 119.62 109.803 119.501C109.82 119.382 114.703 120.071 120.692 121.04C126.68 122.01 131.529 122.886 131.512 123.014Z" fill="#E0E0E0"/>
<path d="M366.482 365.904C366.482 366.031 284.436 366.125 183.249 366.125C82.0633 366.125 0 366.031 0 365.904C0 365.776 82.0293 365.683 183.249 365.683C284.47 365.683 366.482 365.785 366.482 365.904Z" fill="#263238"/>
<path d="M90.9355 77.3335L91.0035 80.7361C91.0035 80.7361 92.3901 107.107 92.305 111.071C92.22 115.035 78.9922 137.654 78.9922 137.654L87.116 150.899L106.511 116.022L101.866 78.5925L101.747 77.6653" fill="#FFBE9D"/>
<path d="M100.786 73.2587L98.1747 63.6548L87.9668 69.5584C87.9668 70.409 91.0207 77.3334 91.0207 77.3334L92.79 79.1708C92.79 79.1708 101.662 78.2351 101.85 78.1415C102.037 78.048 100.786 73.2587 100.786 73.2587Z" fill="#FFBE9D"/>
<path d="M98.4897 64.3352C98.4897 64.3352 98.5492 64.4118 98.5917 64.5394C98.9831 65.5772 100.123 70.2644 99.604 70.6131C99.0851 70.9619 97.3328 71.047 97.052 70.46C96.7713 69.8731 95.8016 64.5054 95.8016 64.5054C95.8016 64.5054 95.6995 63.6547 97.0435 63.0848C97.8772 62.7615 98.4897 64.3352 98.4897 64.3352Z" fill="#FFBE9D"/>
<path d="M95.2569 63.3826C95.2569 63.3826 95.3164 63.4592 95.359 63.5783C95.7503 64.6246 96.8902 69.3032 96.3713 69.652C95.8523 70.0008 94.1 70.0858 93.8193 69.4989C93.5386 68.9119 92.5688 63.5442 92.5688 63.5442C92.5688 63.5442 92.4752 62.6936 93.8108 62.1322C94.6444 61.8004 95.2569 63.3826 95.2569 63.3826Z" fill="#FFBE9D"/>
<path d="M92.3053 63.2805C92.3548 63.3396 92.3898 63.4095 92.4074 63.4846C92.7987 64.5224 93.9301 69.2096 93.4112 69.5583C92.8923 69.9071 91.1484 69.9922 90.8592 69.4052C90.57 68.8183 89.6087 63.4506 89.6087 63.4506C89.6087 63.4506 89.5066 62.5999 90.8507 62.0385C91.6928 61.6727 92.3053 63.2805 92.3053 63.2805Z" fill="#FFBE9D"/>
<path d="M89.379 63.1615C89.4286 63.2206 89.4635 63.2906 89.4811 63.3657C89.8724 64.4035 91.0038 69.0906 90.4849 69.4394C89.966 69.7881 88.2136 69.8732 87.9329 69.2863C87.6522 68.6993 86.6824 63.3316 86.6824 63.3316C86.6824 63.3316 86.5804 62.481 87.9244 61.9195C88.7666 61.5793 89.379 63.1615 89.379 63.1615Z" fill="#FFBE9D"/>
<path d="M96.6861 69.0991C96.6652 68.3096 96.5422 67.5262 96.3203 66.7683C96.1996 66.0011 95.9824 65.2522 95.6738 64.5396C95.6948 65.329 95.8177 66.1124 96.0396 66.8704C96.1603 67.6376 96.3775 68.3864 96.6861 69.0991Z" fill="#EB996E"/>
<path d="M93.9216 69.8219C93.8355 68.7091 93.6447 67.6069 93.3516 66.5299C93.1725 65.4276 92.8876 64.3451 92.501 63.2974C92.5978 64.4088 92.7885 65.5101 93.0709 66.5894C93.2611 67.6894 93.5457 68.7709 93.9216 69.8219Z" fill="#EB996E"/>
<g opacity="0.78">
<path d="M91.0886 70.3158C90.9921 69.2015 90.8014 68.0974 90.5186 67.0152C90.3284 65.9153 90.0438 64.8338 89.668 63.7827C89.7542 64.8983 89.945 66.0034 90.2379 67.0833C90.4186 68.1853 90.7034 69.2676 91.0886 70.3158Z" fill="#EB996E"/>
</g>
<path d="M93.3006 76.3978L90.2042 73.8969C88.8475 72.8035 87.9665 71.2275 87.7458 69.499L87.5757 68.1805L96.933 66.292C96.933 66.292 96.933 69.7712 94.2959 69.8137L97.588 71.5151L93.3006 76.3978Z" fill="#FFBE9D"/>
<path d="M97.1371 72.1872C97.0946 72.1872 96.8904 71.8044 96.329 71.2855C95.5532 70.5698 94.543 70.1615 93.4878 70.1371H92.484L93.4283 69.7883L95.5889 68.9887C96.0214 68.7576 96.3781 68.4069 96.6164 67.9785C96.8548 67.5501 96.9647 67.062 96.933 66.5728C96.9253 66.498 96.9111 66.424 96.8905 66.3516L97.1542 66.4962C94.5426 67.1427 92.1778 67.6872 90.4509 67.9849C89.6003 68.138 88.8857 68.2316 88.3923 68.2911C88.1412 68.3267 87.8864 68.3267 87.6353 68.2911C88.5393 68.0282 89.4564 67.8124 90.3829 67.6446C92.0842 67.2788 94.432 66.6834 97.0436 66.0369L97.2477 65.9858L97.3073 66.1815C97.3371 66.279 97.3598 66.3785 97.3753 66.4792C97.44 67.0753 97.2989 67.6756 96.9755 68.1805C96.6733 68.6328 96.2754 69.0132 95.8101 69.2949L93.6239 70.0435L93.5644 69.6862C94.7034 69.7324 95.7788 70.2243 96.5587 71.0558C96.8552 71.3702 97.0559 71.7627 97.1371 72.1872Z" fill="#EB996E"/>
<path d="M96.5671 67.857C96.6437 67.857 96.7968 68.2823 97.2732 68.7077C97.3938 68.825 97.5483 68.9014 97.7148 68.9258C97.8813 68.9502 98.0512 68.9215 98.2004 68.8438C98.3664 68.7054 98.4925 68.5252 98.5658 68.3219C98.639 68.1185 98.6568 67.8994 98.6172 67.6869C98.5067 66.6321 98.4471 65.6453 98.3535 64.9648C98.26 64.2842 98.1409 63.8504 98.2089 63.8249C98.277 63.7994 98.4726 64.1992 98.6598 64.9052C98.854 65.8141 98.9876 66.7348 99.0596 67.6614C99.1065 67.9515 99.0707 68.2491 98.9564 68.5199C98.842 68.7907 98.6537 69.0238 98.4131 69.1926C98.1918 69.3057 97.9395 69.3428 97.695 69.2982C97.4506 69.2536 97.2276 69.1298 97.0605 68.9459C96.8589 68.726 96.7079 68.4647 96.6182 68.1803C96.5586 67.9846 96.5416 67.874 96.5671 67.857Z" fill="#EB996E"/>
<path d="M64.7693 98.7193C67.0321 98.5831 69.1332 99.9612 70.7239 101.611C72.3147 103.262 73.4886 105.218 75.1133 106.809C76.3213 107.991 77.7844 109.012 78.516 110.535C79.6814 112.968 78.7031 116.107 80.2173 118.37C81.068 119.637 82.5056 120.386 83.3648 121.636C84.4281 123.21 84.3515 125.268 84.1133 127.157C84.0563 128.485 83.5898 129.762 82.7778 130.815C82.02 131.521 81.0996 132.029 80.0982 132.295C72.6733 134.807 64.6563 134.979 57.1304 132.788" fill="#263238"/>
<path d="M49.1768 113.887C48.982 112.333 49.1011 110.755 49.5273 109.248C49.9535 107.741 50.6779 106.335 51.6577 105.113C52.6375 103.892 53.8527 102.879 55.2311 102.136C56.6096 101.393 58.1233 100.934 59.6825 100.786C62.7016 100.553 65.6962 101.479 68.0571 103.375C70.4179 105.272 71.9678 107.996 72.3914 110.994C73.118 115.263 73.6178 119.568 73.8885 123.89C73.812 129.896 70.2988 132.227 68.8782 132.933C68.3662 133.119 67.8358 133.25 67.2959 133.324C67.2959 133.324 67.2959 133.324 67.2959 133.367L68.6315 140.257C69.2354 144.774 66.7175 148.764 62.209 149.453C57.7005 150.142 54.1532 146.645 53.4642 142.128L49.1768 113.887Z" fill="#FFBE9D"/>
<path d="M71.3534 114.541C71.2598 114.677 70.5027 114.252 69.4479 114.405C68.3931 114.558 67.7466 115.171 67.636 115.06C67.5254 114.95 67.636 114.779 67.9507 114.49C68.3465 114.123 68.8452 113.885 69.3798 113.81C69.908 113.734 70.4465 113.827 70.9195 114.073C71.2683 114.269 71.4044 114.473 71.3534 114.541Z" fill="#263238"/>
<path d="M62.3196 116.498C62.2175 116.634 61.4689 116.209 60.4141 116.362C59.3593 116.515 58.7128 117.127 58.5937 117.025C58.4746 116.923 58.5937 116.736 58.9084 116.455C59.3029 116.081 59.8066 115.843 60.346 115.775C60.8734 115.692 61.4135 115.781 61.8857 116.03C62.226 116.226 62.3706 116.43 62.3196 116.498Z" fill="#263238"/>
<path d="M65.8498 121.295C66.3628 121.054 66.9024 120.874 67.4575 120.76C67.7127 120.691 67.9509 120.606 67.9679 120.428C67.9484 120.155 67.8477 119.894 67.6787 119.679L66.6239 117.816C65.6715 116.245 64.8438 114.601 64.1484 112.899C65.2309 114.387 66.1897 115.96 67.0152 117.604C67.3724 118.259 67.7127 118.888 68.0445 119.484C68.2506 119.776 68.3497 120.13 68.3252 120.487C68.2992 120.584 68.2522 120.674 68.1875 120.75C68.1228 120.827 68.042 120.888 67.9509 120.93C67.8142 120.986 67.6715 121.026 67.5256 121.049C66.9807 121.207 66.417 121.29 65.8498 121.295Z" fill="#263238"/>
<path d="M67.2535 133.367C67.2535 133.367 63.383 134.26 58.0493 132.022C58.0493 132.022 60.3461 136.982 67.6193 135.221L67.2535 133.367Z" fill="#EB996E"/>
<path d="M65.756 123.805C65.5307 123.597 65.2572 123.449 64.9602 123.373C64.6632 123.297 64.352 123.297 64.0547 123.371C63.8342 123.424 63.6266 123.521 63.444 123.655C63.2614 123.79 63.1075 123.959 62.9913 124.154C62.8818 124.344 62.8322 124.562 62.8489 124.781C62.8656 125 62.9478 125.208 63.0849 125.379C63.2766 125.536 63.5101 125.633 63.7565 125.659C64.003 125.685 64.2515 125.638 64.4715 125.524C64.9239 125.279 65.3252 124.95 65.6539 124.554C65.7555 124.456 65.839 124.341 65.9006 124.214C65.9301 124.153 65.9402 124.084 65.9295 124.017C65.9189 123.95 65.888 123.888 65.841 123.839" fill="#EB996E"/>
<path d="M62.9487 122.436C63.1104 122.436 63.272 123.507 64.3268 124.137C65.3816 124.766 66.547 124.486 66.5726 124.639C66.5981 124.792 66.3429 124.894 65.8495 124.979C65.2048 125.082 64.5446 124.952 63.9865 124.613C63.4474 124.293 63.0562 123.774 62.8977 123.167C62.7871 122.733 62.8722 122.444 62.9487 122.436Z" fill="#263238"/>
<path d="M61.5962 113.189C61.5367 113.487 60.4989 113.495 59.3249 113.818C58.151 114.142 57.2408 114.601 57.0452 114.371C56.9601 114.269 57.0452 113.98 57.4365 113.657C57.9076 113.254 58.464 112.964 59.0638 112.807C59.6636 112.651 60.291 112.633 60.8987 112.755C61.3921 112.866 61.6387 113.053 61.5962 113.189Z" fill="#263238"/>
<path d="M70.3328 111.411C70.1881 111.666 69.4821 111.53 68.6314 111.641C67.7808 111.751 67.1002 112.023 66.9301 111.802C66.76 111.581 66.9301 111.445 67.1938 111.181C67.5739 110.858 68.0421 110.657 68.5379 110.603C69.0329 110.537 69.5361 110.629 69.9755 110.867C70.2562 111.062 70.3923 111.283 70.3328 111.411Z" fill="#263238"/>
<path d="M73.5653 109.684C72.3233 111.581 68.3848 110.407 66.0029 109.106C64.7623 109.9 63.2603 110.179 61.8174 109.881C60.3744 109.584 59.1046 108.735 58.2789 107.515C56.9179 109.216 54.1532 108.68 53.1749 106.724C52.1967 104.767 52.7326 102.079 54.1192 100.369C55.5123 98.7726 57.4319 97.7283 59.5294 97.4261C61.9364 96.9585 64.4278 97.2063 66.6955 98.1391C68.9632 99.0719 70.9079 100.649 72.2893 102.675C73.5993 104.657 74.3904 107.319 73.6078 109.693" fill="#263238"/>
<path d="M54.4424 100.225C49.9764 99.3741 45.6721 103.823 45.2212 107.03C44.4471 112.559 45.2212 113.248 44.1834 115.894C43.5284 117.595 41.2571 119.382 40.3639 121.159C39.3942 123.065 39.4027 126.263 40.0747 128.322C40.6361 130.023 42.9414 134.813 42.9414 134.813C42.9414 134.813 49.5766 134.6 52.9707 133.732C53.8477 133.552 54.6697 133.168 55.3696 132.609C56.0161 132.022 54.6805 129.998 54.8081 129.139C55.1569 126.689 56.9858 125.268 56.5095 122.852C55.8119 119.645 53.2855 119.45 53.3365 116.192C53.3365 114.49 55.9651 111.938 56.2032 110.237C56.4414 108.536 57.4452 102.496 54.5019 100.267" fill="#263238"/>
<path d="M46.8883 134.991C46.8883 134.991 46.565 134.617 46.0376 133.937C45.2497 132.978 44.5866 131.923 44.0641 130.798C43.2758 129.14 42.9412 127.302 43.0943 125.473C43.1788 124.362 43.4824 123.279 43.9876 122.286C44.4928 121.293 45.1895 120.41 46.0376 119.688C46.9563 118.948 48.0026 118.387 48.8958 117.638C49.7834 116.924 50.4331 115.957 50.7588 114.865C51.0233 113.898 51.2082 112.91 51.3117 111.913C51.3998 111.063 51.5678 110.222 51.8136 109.404C51.9756 108.817 52.2583 108.27 52.6435 107.798C53.0287 107.327 53.508 106.94 54.0508 106.664C54.4698 106.493 54.9168 106.401 55.3693 106.392C55.2544 106.353 55.1333 106.336 55.0121 106.341C54.6628 106.336 54.3158 106.399 53.9913 106.528C53.4019 106.784 52.8756 107.165 52.4494 107.646C52.0232 108.126 51.7075 108.694 51.5244 109.31C51.2478 110.139 51.0568 110.994 50.9544 111.862C50.8421 112.838 50.6486 113.802 50.376 114.746C50.0648 115.757 49.45 116.648 48.6151 117.298C47.7644 118.012 46.7096 118.565 45.7484 119.348C44.8627 120.102 44.1369 121.025 43.6139 122.064C43.0909 123.103 42.7811 124.236 42.703 125.396C42.5623 127.285 42.9325 129.177 43.7748 130.874C44.3299 132.008 45.0399 133.058 45.8845 133.996C46.1822 134.319 46.4374 134.566 46.6075 134.719C46.6878 134.823 46.7823 134.914 46.8883 134.991Z" fill="#455A64"/>
<path d="M79.3497 132.099C79.3497 132.099 79.4178 132.022 79.5198 131.861C79.6585 131.618 79.7834 131.368 79.8941 131.112C80.2794 130.155 80.4758 129.132 80.4726 128.101C80.4801 126.554 80.0463 125.037 79.2221 123.728C78.7054 122.989 78.1368 122.287 77.5208 121.627C76.8867 120.95 76.4308 120.125 76.1938 119.228C75.7939 117.365 76.4064 115.485 76.2788 113.75C76.2449 112.21 75.8237 110.703 75.0539 109.369C74.5229 108.484 73.8165 107.717 72.9783 107.115C72.7486 106.957 72.51 106.812 72.2637 106.681L72 106.562C72.2719 106.8 72.5558 107.025 72.8507 107.234C73.6349 107.863 74.2905 108.637 74.7817 109.514C75.4889 110.821 75.8656 112.281 75.879 113.767C75.8944 114.649 75.8404 115.531 75.7174 116.404C75.5805 117.371 75.6006 118.353 75.7769 119.313C76.0288 120.268 76.5141 121.145 77.189 121.865C77.8004 122.511 78.3688 123.196 78.8904 123.915C79.6983 125.161 80.1404 126.608 80.1663 128.092C80.195 129.097 80.0453 130.1 79.724 131.053C79.5113 131.733 79.3157 132.082 79.3497 132.099Z" fill="#455A64"/>
<path d="M60.4565 98.0896C61.4175 98.0768 62.3783 98.1308 63.3318 98.2512C65.6178 98.6344 67.7121 99.7653 69.2864 101.467C70.7768 103.242 71.7664 105.383 72.1531 107.668C72.2853 108.623 72.3337 109.588 72.2977 110.552C72.3897 110.303 72.4442 110.042 72.4594 109.778C72.5429 109.066 72.5429 108.346 72.4594 107.634C72.1481 105.261 71.1586 103.028 69.6097 101.203C67.9797 99.4362 65.7827 98.2955 63.3998 97.979C62.6851 97.8911 61.9624 97.8911 61.2477 97.979C60.9798 97.9741 60.7128 98.0114 60.4565 98.0896Z" fill="#455A64"/>
<path d="M66.8705 106.911C66.9367 106.693 66.9683 106.466 66.9641 106.239C66.9842 105.615 66.9184 104.991 66.7684 104.384C66.534 103.372 66.0961 102.419 65.4814 101.581C64.8666 100.744 64.0879 100.041 63.1927 99.5137C62.2974 98.9869 61.3043 98.6477 60.2738 98.517C59.2433 98.3862 58.197 98.4665 57.1985 98.753C56.6014 98.9162 56.0291 99.1594 55.4971 99.476C55.1229 99.7142 54.9357 99.8673 54.9527 99.8929C55.6985 99.5373 56.476 99.2525 57.275 99.0422C59.2206 98.545 61.2838 98.8375 63.0145 99.8559C64.7453 100.874 66.003 102.536 66.5132 104.478C66.6995 105.278 66.819 106.091 66.8705 106.911Z" fill="#455A64"/>
<path d="M47.6116 174.088C47.6116 174.088 50.5549 180.791 50.3848 183.964C50.2147 187.137 47.1778 197.447 47.1778 197.447L83.1523 200.807L83.3139 192.488L82.2335 158.266L102.292 127.752L87.1163 118.957L72.3574 138.99L68.623 137.543L52.4604 139.585V142.392L52.0011 142.443C48.4564 143.197 45.0596 144.527 41.9462 146.382C39.1158 148.145 36.8725 150.709 35.5005 153.748C34.1285 156.787 33.6895 160.166 34.2392 163.455C34.8943 167.538 36.1702 172.497 38.6202 175.364C43.3328 180.859 47.6116 174.088 47.6116 174.088Z" fill="#F3403F"/>
<path d="M42.5074 158.112C42.5074 158.112 40.67 147.666 41.1804 146.909C41.8099 146.016 49.3723 142.766 49.4828 143.098L51.1416 154.582L42.5074 158.112Z" fill="#FAFAFA"/>
<path d="M73.1653 158.691L72.3062 178.724H79.8685V158.691H73.1653Z" fill="#FAFAFA"/>
<path d="M60.6523 168.711C60.7936 168.695 60.9363 168.695 61.0777 168.711H62.3792L67.3555 168.635H67.5001V168.788C67.5512 173.594 67.5767 180.782 67.5767 188.821V189.042H59.5635V188.821C59.8442 183.045 60.0994 178.026 60.278 174.36C60.3801 172.658 60.4567 171.238 60.5162 170.217C60.5162 169.766 60.5673 169.366 60.5928 169.12C60.5779 169.001 60.5779 168.881 60.5928 168.762C60.6016 168.898 60.6016 169.035 60.5928 169.171C60.5928 169.477 60.5928 169.851 60.5928 170.311C60.5928 171.348 60.5247 172.76 60.4737 174.513C60.3461 178.111 60.1674 183.079 59.9633 188.804L59.7506 188.583H67.313L67.0918 188.804C67.0918 180.765 67.0918 173.577 67.1684 168.771L67.313 168.915L62.4472 168.762H61.1117L60.6523 168.711Z" fill="#FAFAFA"/>
<path d="M89.8215 146.296L81.8423 141.252L88.8517 131.019L97.0266 135.765L89.8215 146.296Z" fill="#FAFAFA"/>
<g opacity="0.4">
<path d="M81.842 146.909H58.4233V154.506H81.842V146.909Z" fill="white"/>
</g>
<path d="M81.5019 167.572C81.4608 167.341 81.4608 167.105 81.5019 166.874C81.5614 166.423 81.638 165.777 81.706 164.986C81.8908 162.908 81.8908 160.819 81.706 158.742C81.5116 156.664 81.1301 154.609 80.5661 152.6C80.1408 151.06 79.792 150.125 79.8601 150.099C79.9281 150.074 80.0047 150.303 80.1833 150.72C80.4438 151.303 80.6738 151.899 80.8724 152.506C81.525 154.517 81.953 156.594 82.1484 158.699C82.3467 160.804 82.3039 162.925 82.0208 165.02C81.9381 165.652 81.8216 166.28 81.672 166.9C81.6513 167.131 81.5938 167.358 81.5019 167.572Z" fill="#263238"/>
<path d="M92.8583 122.282C92.4606 122.913 92.0019 123.502 91.4888 124.043C90.6381 125.089 89.3536 126.519 87.95 128.084L86.4529 129.734L86.3253 129.879L86.1721 129.777C84.8876 128.926 83.7903 128.135 83.0247 127.582C82.5908 127.317 82.1932 126.997 81.8423 126.629C82.3093 126.825 82.7541 127.071 83.1693 127.361C83.9774 127.854 85.1088 128.569 86.4103 129.419H86.1381L87.6183 127.718C89.0219 126.153 90.3064 124.766 91.2506 123.771C91.7392 123.226 92.2774 122.728 92.8583 122.282Z" fill="#FAFAFA"/>
<path d="M101.127 129.522C100.31 129.23 99.5218 128.865 98.7704 128.433C97.3328 127.71 95.3677 126.672 93.2156 125.515C91.0634 124.358 89.1239 123.278 87.7288 122.487C86.9555 122.091 86.2158 121.633 85.5171 121.117C86.3359 121.41 87.1272 121.774 87.8819 122.206C89.311 122.938 91.2846 123.967 93.4282 125.124C95.5719 126.281 97.5199 127.361 98.915 128.152C99.6898 128.545 100.43 129.003 101.127 129.522Z" fill="#263238"/>
<path d="M20.2118 338.146L16.3583 355.568L9.33188 368.481C9.2097 368.702 9.1347 368.947 9.11164 369.198C9.08857 369.45 9.11793 369.704 9.19786 369.943C9.27779 370.183 9.40656 370.404 9.57604 370.591C9.74552 370.779 9.95203 370.929 10.1825 371.033C10.4509 371.16 10.7462 371.219 11.0427 371.206C11.3392 371.193 11.628 371.107 11.8839 370.956C15.1504 369.068 27.1362 362.059 27.3489 360.749C27.5956 359.251 32.64 342.629 32.64 342.629L20.2118 338.146Z" fill="#F3403F"/>
<g opacity="0.6">
<path d="M10.1738 371.016L27.5698 359.583L27.3912 360.315C27.2346 360.933 26.8714 361.479 26.3619 361.863C24.9413 362.884 20.9687 365.631 11.9007 370.922C11.6432 371.069 11.3537 371.152 11.0574 371.162C10.761 371.172 10.4665 371.111 10.1994 370.982L10.1738 371.016Z" fill="white"/>
</g>
<g opacity="0.6">
<path d="M25.4178 353.118C25.1652 353.222 24.9602 353.417 24.8424 353.663C24.7246 353.91 24.7023 354.191 24.7798 354.454C24.8741 354.708 25.0629 354.916 25.3069 355.035C25.5509 355.154 25.8313 355.174 26.0898 355.092C26.3569 354.981 26.5736 354.776 26.6978 354.515C26.822 354.254 26.8448 353.956 26.7618 353.679C26.6334 353.424 26.4116 353.228 26.1425 353.131C25.8733 353.034 25.5773 353.045 25.3157 353.161" fill="white"/>
</g>
<path d="M15.9922 364.415C15.7106 363.778 15.3092 363.2 14.8098 362.714C14.2342 362.312 13.5876 362.024 12.9043 361.863C12.9043 361.812 13.151 361.735 13.5763 361.778C14.1224 361.85 14.6362 362.077 15.0565 362.433C15.4874 362.784 15.8042 363.254 15.9667 363.786C16.0773 364.143 16.0432 364.415 15.9922 364.415Z" fill="#263238"/>
<path d="M14.1889 366.431C14.0869 366.482 13.67 365.785 12.8364 365.308C12.3059 365.064 11.7604 364.854 11.2031 364.679C11.5103 364.577 11.8373 364.551 12.1569 364.601C12.4764 364.651 12.7794 364.777 13.0406 364.968C13.9593 365.521 14.291 366.406 14.1889 366.431Z" fill="#263238"/>
<path d="M19.0634 361.998C18.4498 361.33 17.7904 360.704 17.0899 360.127C16.313 359.657 15.5027 359.245 14.6655 358.894C15.6178 358.94 16.5372 359.257 17.316 359.806C18.0949 360.356 18.701 361.117 19.0634 361.998Z" fill="#263238"/>
<path d="M20.6371 356.801C20.569 356.895 19.7099 356.257 18.4764 355.908C17.2429 355.559 16.1796 355.61 16.1626 355.5C16.9454 355.214 17.8042 355.214 18.587 355.5C19.4039 355.675 20.1312 356.136 20.6371 356.801Z" fill="#263238"/>
<path d="M21.9047 351.714C21.208 351.282 20.4553 350.947 19.6675 350.719C18.8574 350.608 18.0361 350.608 17.2261 350.719C17.2261 350.677 17.4558 350.507 17.9066 350.37C18.5093 350.208 19.1418 350.191 19.7525 350.319C20.3729 350.444 20.9555 350.712 21.4539 351.102C21.7856 351.425 21.9387 351.655 21.9047 351.714Z" fill="#263238"/>
<path d="M19.9142 349.758C19.9054 349.532 19.9522 349.307 20.0503 349.103C20.2556 348.515 20.5767 347.974 20.9945 347.512C21.2679 347.143 21.6574 346.876 22.1004 346.755C22.2491 346.731 22.4018 346.752 22.5384 346.815C22.675 346.879 22.7892 346.983 22.866 347.112C22.992 347.378 23.0191 347.679 22.9425 347.963C22.7667 348.539 22.3927 349.034 21.8867 349.361C21.3807 349.688 20.7754 349.826 20.1779 349.749C19.5883 349.667 19.0366 349.411 18.5928 349.014C18.149 348.617 17.8332 348.097 17.6855 347.521C17.6518 347.375 17.6487 347.225 17.6766 347.078C17.7044 346.932 17.7625 346.793 17.8471 346.67C17.9475 346.548 18.0859 346.463 18.2401 346.43C18.3943 346.396 18.5554 346.414 18.6977 346.483C19.0968 346.677 19.4394 346.97 19.693 347.333C20.0703 347.827 20.3582 348.383 20.5437 348.975C20.6327 349.185 20.6734 349.411 20.6628 349.639C20.3764 348.873 19.9748 348.156 19.4719 347.512C19.2556 347.197 18.9629 346.943 18.6212 346.772C18.5458 346.735 18.4597 346.724 18.3776 346.743C18.2955 346.761 18.2223 346.808 18.1703 346.874C18.1194 346.957 18.087 347.051 18.0752 347.147C18.0635 347.244 18.0727 347.343 18.1023 347.436C18.2439 347.929 18.5246 348.371 18.9108 348.709C19.2969 349.047 19.7723 349.266 20.28 349.341C20.7849 349.401 21.2951 349.287 21.7265 349.018C22.1579 348.749 22.4848 348.341 22.6533 347.861C22.7251 347.669 22.7251 347.457 22.6533 347.265C22.6147 347.191 22.5534 347.132 22.4784 347.095C22.4035 347.058 22.3187 347.046 22.2365 347.061C21.8646 347.164 21.5343 347.382 21.2923 347.682C20.7109 348.285 20.2439 348.988 19.9142 349.758Z" fill="#263238"/>
<g opacity="0.3">
<path d="M19.7606 340.035L19.2417 342.519L31.5508 346.126L32.6056 342.638L20.2115 338.146L19.7606 340.035Z" fill="black"/>
</g>
<path d="M76.6106 344.595L75.5643 358.52C75.5643 358.52 89.3705 364.253 89.4301 366.848L62.3535 365.802L63.0851 344.033L76.6106 344.595Z" fill="#F3403F"/>
<g opacity="0.6">
<path d="M67.236 357.022C66.9732 357.093 66.7455 357.257 66.5964 357.485C66.4473 357.712 66.3873 357.987 66.4279 358.256C66.4798 358.527 66.6347 358.767 66.86 358.925C67.0854 359.084 67.3635 359.149 67.6359 359.107C67.9147 359.032 68.156 358.857 68.3131 358.615C68.4703 358.373 68.5321 358.081 68.4865 357.797C68.3948 357.525 68.2023 357.3 67.9489 357.167C67.6955 357.034 67.4007 357.004 67.1255 357.082" fill="white"/>
</g>
<g opacity="0.6">
<path d="M62.3535 365.801L62.5151 363.606L88.4178 365.435C88.4178 365.435 89.6002 366.005 89.4301 366.847L62.3535 365.801Z" fill="white"/>
</g>
<path d="M76.0067 358.401C76.0067 358.528 75.3347 358.562 74.6712 358.962C74.0077 359.362 73.6334 359.906 73.5143 359.855C73.3952 359.804 73.6249 359.005 74.4415 358.571C75.2581 358.137 76.0577 358.282 76.0067 358.401Z" fill="#263238"/>
<path d="M78.8052 359.685C78.8052 359.812 78.2523 360.016 77.7759 360.535C77.2995 361.054 77.1549 361.658 77.0188 361.65C76.8827 361.641 76.8402 360.884 77.4356 360.229C78.0311 359.574 78.8052 359.557 78.8052 359.685Z" fill="#263238"/>
<path d="M80.3108 363.147C80.1917 363.147 80.0301 362.5 80.3959 361.794C80.7617 361.088 81.3996 360.816 81.4507 360.943C81.5017 361.071 81.1019 361.428 80.8127 362.015C80.5235 362.602 80.4214 363.138 80.3108 363.147Z" fill="#263238"/>
<path d="M75.8958 355.202C75.8363 355.321 75.2323 355.109 74.4837 355.134C73.7351 355.16 73.1482 355.372 73.0801 355.253C73.0121 355.134 73.5905 354.683 74.4752 354.675C75.3599 354.666 75.9639 355.1 75.8958 355.202Z" fill="#263238"/>
<g opacity="0.3">
<path d="M76.398 347.35L76.2194 349.834L62.915 349.196L63.0001 346.329L76.398 347.35Z" fill="black"/>
</g>
<path d="M76.0577 352.387C75.607 352.49 75.1366 352.47 74.6967 352.327C74.2107 352.219 73.7395 352.054 73.2931 351.834C73.031 351.704 72.778 351.556 72.536 351.391C72.3848 351.304 72.2496 351.192 72.1362 351.06C72.0568 350.959 72.0137 350.835 72.0137 350.707C72.0137 350.578 72.0568 350.454 72.1362 350.353C72.2056 350.262 72.296 350.189 72.3996 350.14C72.5033 350.092 72.6171 350.068 72.7316 350.073C72.9022 350.076 73.0714 350.104 73.2335 350.158C73.5266 350.239 73.8114 350.347 74.0842 350.481C74.5321 350.699 74.9426 350.986 75.3006 351.332C75.9046 351.944 76.1002 352.446 76.0577 352.472C76.0152 352.497 75.7089 352.08 75.088 351.578C74.7223 351.287 74.3224 351.041 73.897 350.847C73.6492 350.739 73.3932 350.651 73.1314 350.583C72.8507 350.49 72.604 350.481 72.5275 350.583C72.4509 350.685 72.5275 350.651 72.5275 350.736C72.6112 350.83 72.7087 350.91 72.8167 350.974C73.0393 351.137 73.2724 351.285 73.5142 351.417C73.9278 351.64 74.3605 351.825 74.8072 351.97C75.2336 352.078 75.6515 352.218 76.0577 352.387Z" fill="#263238"/>
<path d="M75.8705 352.565C75.6304 352.169 75.5231 351.707 75.5643 351.246C75.5634 350.742 75.6468 350.242 75.811 349.766C75.9071 349.484 76.0326 349.213 76.1853 348.958C76.2623 348.787 76.3803 348.638 76.5286 348.524C76.677 348.41 76.8512 348.334 77.0359 348.303C77.1565 348.31 77.2724 348.352 77.3703 348.423C77.4682 348.493 77.544 348.59 77.5888 348.703C77.6528 348.863 77.693 349.032 77.7079 349.204C77.751 349.509 77.751 349.818 77.7079 350.123C77.6093 350.627 77.3904 351.1 77.0699 351.501C76.517 352.182 75.9556 352.352 75.9471 352.275C75.9386 352.199 76.3809 351.969 76.7977 351.306C77.0407 350.923 77.2028 350.494 77.2741 350.047C77.3124 349.787 77.3124 349.523 77.2741 349.264C77.2741 348.975 77.1465 348.737 77.0359 348.762C76.9253 348.788 76.6701 348.966 76.551 349.187C76.4057 349.416 76.2832 349.658 76.1853 349.91C76.0184 350.342 75.9125 350.794 75.8705 351.255C75.828 352.046 75.9471 352.548 75.8705 352.565Z" fill="#263238"/>
<path d="M42.3031 166.21L49.3041 166.602C49.7976 168.569 50.4608 170.491 51.2861 172.344C56.926 162.553 61.2984 149.444 62.3873 144.17C62.2256 143.642 62.0385 143.064 61.8088 142.409C61.6377 141.426 61.6666 140.42 61.8939 139.449C62.0895 138.275 62.4128 136.692 62.5149 135.961C62.8126 133.732 63.1699 133.409 63.9525 133.639C65.0073 133.979 63.5186 139.891 64.3778 140.019C64.8457 140.087 65.4156 138.062 65.5772 136.403C65.7389 134.744 66.4959 129.598 67.0489 129.283C67.8995 128.781 68.5545 129.572 68.3504 131.231C68.1462 132.89 67.8825 137.9 68.7672 137.968C69.6519 138.036 70.3579 129.555 70.3579 129.555C70.3579 129.555 70.2218 127.718 71.2086 127.76C73.046 127.837 71.6084 136.777 71.4553 137.62C71.3447 138.207 72.306 138.317 72.3825 137.679C72.4591 137.041 72.9099 129.173 74.7814 129.266C76.2105 129.317 73.667 136.633 74.4751 138.326C75.2833 140.019 75.8362 132.567 77.2058 132.669C77.7162 132.669 78.0564 132.805 77.1547 137.024C76.2458 140.38 75.1524 143.682 73.8797 146.917C71.7105 158.614 62.1916 196.035 47.271 189.187C38.9175 185.35 35.0215 166.372 35.0215 166.372L42.3031 166.21Z" fill="#FFBE9D"/>
<path d="M73.9054 146.909C73.9202 146.821 73.9459 146.736 73.982 146.654C74.0415 146.467 74.1266 146.22 74.2287 145.922C74.4583 145.242 74.7901 144.298 75.2069 143.098C75.6238 141.899 76.1342 140.368 76.6446 138.598C76.8997 137.748 77.1124 136.761 77.3081 135.731C77.4016 135.221 77.5037 134.694 77.5633 134.149C77.5846 133.88 77.5846 133.61 77.5633 133.341C77.5633 133.06 77.5037 132.839 77.2825 132.831C77.0614 132.822 76.8997 132.958 76.7466 133.197C76.6022 133.448 76.4825 133.713 76.3893 133.988C76.1937 134.549 76.0321 135.145 75.879 135.757C75.7258 136.369 75.5812 136.999 75.3941 137.637C75.3152 137.99 75.1709 138.324 74.9687 138.624C74.9136 138.692 74.834 138.737 74.7468 138.748C74.6596 138.759 74.5715 138.736 74.5009 138.683C74.4183 138.606 74.3517 138.514 74.3052 138.411C74.2307 138.237 74.1793 138.054 74.1521 137.867C74.1253 136.437 74.2681 135.009 74.5774 133.613C74.705 132.899 74.8326 132.176 74.9262 131.444C74.9757 131.077 75.0041 130.708 75.0113 130.338C75.0113 130.007 75.0113 129.547 74.8156 129.488C74.62 129.428 74.3052 129.624 74.1351 129.93C73.9369 130.246 73.7797 130.586 73.6672 130.942C73.4282 131.688 73.2434 132.45 73.1143 133.222C72.9782 134.013 72.8761 134.813 72.7825 135.621C72.7825 136.029 72.706 136.472 72.6635 136.846L72.6124 137.467C72.6194 137.599 72.5979 137.731 72.5495 137.855C72.5011 137.978 72.4268 138.089 72.3317 138.181C72.2086 138.273 72.0595 138.322 71.9064 138.322C71.7532 138.322 71.6041 138.273 71.481 138.181C71.4125 138.136 71.3538 138.077 71.3085 138.008C71.2632 137.94 71.2322 137.863 71.2173 137.782C71.2043 137.706 71.2043 137.628 71.2173 137.552V137.399C71.2769 136.982 71.3449 136.548 71.4045 136.148C71.5236 135.298 71.6256 134.447 71.7107 133.596C71.7958 132.746 71.8468 131.895 71.8638 131.044C71.9064 130.186 71.8204 129.326 71.6086 128.492C71.5603 128.28 71.4325 128.094 71.2514 127.973C71.1645 127.947 71.0718 127.948 70.9853 127.975C70.8988 128.002 70.8225 128.055 70.7665 128.127C70.5384 128.551 70.4464 129.035 70.5028 129.513C70.3497 131.214 70.1625 132.839 69.9243 134.455C69.7967 135.306 69.6691 136.072 69.465 136.863C69.4142 137.065 69.3518 137.264 69.2778 137.458C69.21 137.698 69.0705 137.912 68.878 138.071C68.7902 138.113 68.6909 138.125 68.5955 138.105C68.5002 138.085 68.4141 138.034 68.3506 137.96C68.2682 137.865 68.2047 137.756 68.1635 137.637C68.088 137.439 68.0338 137.234 68.0018 137.024C67.8264 135.471 67.8122 133.903 67.9593 132.346C68.0577 131.622 68.0946 130.89 68.0699 130.16C68.0508 129.849 67.9102 129.559 67.6786 129.352C67.6258 129.315 67.5656 129.291 67.5024 129.281C67.4391 129.27 67.3744 129.274 67.3128 129.292C67.2407 129.309 67.1717 129.338 67.1086 129.377C67.0643 129.407 67.029 129.448 67.0066 129.496C66.7536 130.139 66.5655 130.806 66.4451 131.487C66.309 132.167 66.1899 132.848 66.0793 133.52C65.9687 134.192 65.8752 134.847 65.7901 135.502C65.705 136.157 65.654 136.803 65.5264 137.441C65.4204 138.072 65.2522 138.69 65.0245 139.287C64.9706 139.438 64.9022 139.583 64.8204 139.721C64.7183 139.857 64.6672 140.036 64.395 140.121C64.3258 140.133 64.2545 140.125 64.1896 140.098C64.1247 140.071 64.069 140.026 64.0292 139.968C63.981 139.885 63.9439 139.796 63.9187 139.704C63.8873 139.547 63.8674 139.388 63.8591 139.228C63.8591 138.011 64.0292 136.897 64.0888 135.825C64.14 135.31 64.14 134.792 64.0888 134.277C64.0888 134.047 63.9867 133.783 63.8506 133.724C63.7606 133.68 63.6617 133.657 63.5614 133.657C63.4611 133.657 63.3621 133.68 63.2722 133.724C62.9771 134.047 62.7923 134.455 62.7447 134.889C62.6427 135.332 62.6001 135.74 62.5151 136.191C62.2173 137.892 61.9026 139.33 61.758 140.512C61.6822 141.034 61.6822 141.564 61.758 142.086C61.8601 142.511 62.0047 142.894 62.0812 143.192L62.2854 143.889C62.3192 143.965 62.3393 144.045 62.3449 144.128C62.3027 144.056 62.2712 143.979 62.2514 143.898L62.0047 143.226C61.9026 142.92 61.758 142.571 61.6304 142.103C61.5529 141.57 61.5529 141.028 61.6304 140.495C61.758 139.287 62.0472 137.85 62.3194 136.157C62.396 135.74 62.4385 135.306 62.5406 134.838C62.5831 134.604 62.6457 134.373 62.7277 134.149C62.7988 133.888 62.9543 133.658 63.1701 133.494C63.3014 133.426 63.4473 133.39 63.5954 133.39C63.7435 133.39 63.8894 133.426 64.0207 133.494C64.361 133.69 64.3695 134.013 64.4291 134.26C64.4798 134.795 64.4798 135.333 64.4291 135.868C64.378 136.956 64.2079 138.096 64.2334 139.27C64.241 139.407 64.258 139.544 64.2844 139.679C64.2844 139.815 64.3865 139.866 64.3695 139.84C64.3525 139.815 64.5056 139.721 64.5652 139.611C64.6343 139.483 64.6967 139.353 64.7523 139.219C64.9601 138.639 65.1167 138.041 65.2202 137.433C65.3393 136.82 65.3733 136.174 65.4669 135.519C65.5604 134.864 65.637 134.192 65.7476 133.52C65.8582 132.848 65.9688 132.159 66.1049 131.47C66.2263 130.746 66.4289 130.038 66.7088 129.36C66.7622 129.247 66.8481 129.152 66.9555 129.088C67.0491 129.033 67.1491 128.99 67.2533 128.96C67.3681 128.93 67.488 128.924 67.6052 128.943C67.7224 128.963 67.8343 129.006 67.9338 129.071C68.1001 129.203 68.2378 129.368 68.3387 129.555C68.4396 129.742 68.5015 129.948 68.5207 130.16C68.5718 130.546 68.5718 130.938 68.5207 131.325C68.5207 131.691 68.4527 132.065 68.4272 132.439C68.2742 133.958 68.2742 135.489 68.4272 137.007C68.4574 137.187 68.5029 137.363 68.5633 137.535C68.5905 137.602 68.6278 137.666 68.6739 137.722C68.6739 137.892 68.6739 137.765 68.6739 137.79C68.6739 137.816 68.6739 137.79 68.6739 137.731C68.7622 137.612 68.8312 137.48 68.878 137.339C68.9376 137.161 68.9971 136.973 69.0481 136.786C69.2353 136.029 69.3714 135.23 69.4905 134.43C69.7287 132.822 69.9073 131.18 70.0604 129.513C69.9935 128.922 70.1188 128.326 70.4177 127.812C70.5286 127.661 70.6862 127.55 70.8662 127.498C71.0462 127.446 71.2384 127.454 71.413 127.523C71.5644 127.603 71.6972 127.714 71.8028 127.849C71.9083 127.983 71.9842 128.139 72.0255 128.305C72.256 129.182 72.3507 130.088 72.3062 130.993C72.3062 131.844 72.2296 132.746 72.1446 133.613C72.0595 134.481 71.9574 135.315 71.8383 136.165C71.7788 136.591 71.7107 137.016 71.6512 137.424C71.5916 137.697 71.6512 137.705 71.6512 137.782C71.701 137.812 71.7584 137.829 71.817 137.829C71.8757 137.829 71.9331 137.812 71.9829 137.782C72.0765 137.722 72.085 137.594 72.102 137.365L72.1616 136.744C72.1616 136.335 72.2466 135.893 72.2807 135.519C72.3742 134.668 72.4848 133.886 72.6209 133.094C72.7545 132.299 72.945 131.515 73.1909 130.747C73.3183 130.358 73.4926 129.987 73.7098 129.641C73.8302 129.453 73.9863 129.292 74.1691 129.164C74.2684 129.076 74.3912 129.02 74.5224 129C74.6536 128.981 74.7876 129.001 74.9077 129.057C75.0279 129.113 75.1291 129.203 75.1989 129.316C75.2687 129.429 75.304 129.559 75.3005 129.692C75.3313 129.892 75.3455 130.094 75.343 130.296C75.3309 130.68 75.2968 131.064 75.241 131.444C75.1474 132.193 75.0113 132.916 74.8837 133.63C74.5751 134.986 74.4267 136.374 74.4413 137.765C74.4565 137.915 74.4968 138.061 74.5604 138.198C74.5823 138.25 74.6109 138.299 74.6455 138.343C74.6455 138.343 74.6455 138.343 74.6455 138.3C74.807 138.038 74.9248 137.75 74.9943 137.45C75.1814 136.829 75.326 136.199 75.4877 135.587C75.6493 134.974 75.8109 134.37 76.0236 133.792C76.1259 133.496 76.257 133.211 76.4149 132.941C76.496 132.796 76.606 132.669 76.7381 132.567C76.8128 132.506 76.8999 132.463 76.9933 132.439C77.0832 132.422 77.1756 132.422 77.2655 132.439C77.3637 132.449 77.4575 132.484 77.5369 132.543C77.6163 132.601 77.6783 132.68 77.7164 132.771C77.7744 132.921 77.806 133.079 77.81 133.239C77.8187 133.524 77.8016 133.808 77.7589 134.09C77.6994 134.651 77.5888 135.179 77.4867 135.697C77.3034 136.668 77.0677 137.628 76.7807 138.573C76.2532 140.342 75.7173 141.839 75.275 143.056C74.8326 144.272 74.4243 145.225 74.2202 145.854C74.1011 146.152 73.999 146.39 73.9309 146.577C73.8629 146.765 73.9139 146.918 73.9054 146.909Z" fill="#EB996E"/>
<path d="M34.9707 167.061C36.3233 171.842 38.9688 179.226 41.776 187.018C41.8671 187.268 42.0302 187.486 42.2449 187.645C42.4596 187.803 42.7162 187.894 42.9826 187.907C43.2489 187.919 43.5131 187.853 43.7419 187.716C43.9706 187.579 44.1538 187.378 44.2684 187.137L51.2439 172.378C51.2439 172.378 49.5425 160.256 49.7042 160.681C49.8658 161.107 35.311 162.255 35.311 162.255L34.9707 167.061Z" fill="#F3403F"/>
<path d="M53.8385 168.193C53.8385 168.193 53.6514 168.048 53.3026 167.954C53.0663 167.882 52.8144 167.877 52.5754 167.94C52.3365 168.003 52.1199 168.132 51.9501 168.312L51.7714 168.516L51.6608 168.252C51.2865 167.299 50.8102 166.066 50.3338 164.705C49.5882 162.837 48.977 160.918 48.5049 158.963C49.394 160.769 50.1448 162.64 50.7506 164.56C51.244 165.913 51.6693 167.163 51.9841 168.133L51.6949 168.082C51.9416 167.83 52.2708 167.676 52.6221 167.648C52.8776 167.625 53.135 167.666 53.3707 167.767C53.7535 167.912 53.8555 168.176 53.8385 168.193Z" fill="#263238"/>
<path d="M43.9453 182.228C44.2099 181.498 44.5491 180.797 44.9576 180.136C45.6296 178.877 46.5824 177.141 47.6712 175.244C48.7601 173.347 49.7553 171.638 50.4954 170.413C50.8614 169.727 51.2915 169.078 51.7799 168.473C51.5101 169.201 51.1711 169.902 50.7676 170.566C50.0956 171.833 49.1343 173.56 48.054 175.466C46.9737 177.371 45.9699 179.072 45.2298 180.297C44.8617 180.979 44.4317 181.625 43.9453 182.228Z" fill="#263238"/>
<path d="M39.3006 180.008C39.6784 179.687 40.0857 179.402 40.517 179.158C41.3081 178.647 42.4565 177.933 43.8516 177.082L43.7751 177.312C43.001 175.5 42.0737 173.382 41.121 171.102C39.9131 168.235 38.8327 165.598 38.0416 163.633L38.2798 163.71C37.1739 164.314 36.2722 164.79 35.6512 165.113C35.3344 165.303 34.9978 165.457 34.6475 165.573C34.926 165.331 35.2314 165.123 35.5577 164.952C36.1616 164.577 37.0293 164.059 38.1097 163.429L38.2628 163.335L38.3393 163.506C39.19 165.445 40.3129 168.057 41.5208 170.932C42.4735 173.22 43.3497 175.347 44.0728 177.167L44.1323 177.32L43.9962 177.397C42.5841 178.248 41.4442 178.886 40.5936 179.336C40.1862 179.603 39.7531 179.828 39.3006 180.008Z" fill="#FAFAFA"/>
<path d="M77.1464 348.099C78.3928 348.063 79.5806 347.562 80.4763 346.695C81.372 345.828 81.9108 344.656 81.9867 343.412C83.4413 319.866 89.9914 212.759 88.6814 209.399C87.2013 205.622 83.3137 192.488 83.3137 192.488L48.5812 190.88C48.5812 190.88 39.9385 204.49 38.6966 209.748C37.5737 214.435 6.10773 313.588 2.19469 334.642C2.00104 335.687 2.20048 336.767 2.75471 337.675C3.30895 338.582 4.17891 339.253 5.19753 339.558L77.1464 348.099Z" fill="#263238"/>
<path d="M55.4374 191.62C55.4374 191.62 55.3948 191.747 55.2843 191.994L54.7909 193.066L52.8514 197.166C52.4686 198.076 52.0518 199.088 51.5839 200.186C51.116 201.283 50.6056 202.491 50.1463 203.81C49.6869 205.128 49.1255 206.523 48.6066 208.02C48.0877 209.518 47.6028 211.117 47.0584 212.793L45.5187 218.101C45.0168 219.955 44.5404 221.895 44.013 223.902C43.4856 225.91 43.0688 228.002 42.5669 230.155C42.065 232.307 41.6141 234.527 41.1803 236.815C40.2446 241.375 39.3259 246.173 38.3561 251.157C37.3864 256.142 36.3485 261.28 35.1321 266.52C34.5451 269.14 33.8646 271.692 33.2351 274.244C32.6056 276.796 31.8656 279.263 31.117 281.688C29.6453 286.545 28.0291 291.172 26.3788 295.528C23.0442 304.247 19.5735 311.912 16.5962 318.283C13.6189 324.655 11.0074 329.741 9.22096 333.255L7.15386 337.312C6.92418 337.755 6.73703 338.103 6.60093 338.35C6.54313 338.47 6.47778 338.587 6.40527 338.699C6.45138 338.574 6.50537 338.452 6.5669 338.333C6.68599 338.078 6.85612 337.721 7.0773 337.27C7.54516 336.317 8.21718 334.948 9.08486 333.195C10.7862 329.665 13.3382 324.552 16.324 318.164C19.3098 311.776 22.7039 304.111 26.013 295.4C27.6463 291.045 29.254 286.426 30.7257 281.577C31.4657 279.161 32.1293 276.669 32.8268 274.151C33.5244 271.633 34.1368 269.047 34.7068 266.418C35.9232 261.187 36.944 256.032 37.9393 251.064C38.9346 246.096 39.8363 241.29 40.789 236.73C41.2398 234.442 41.7502 232.222 42.2096 230.07C42.669 227.917 43.2049 225.816 43.6727 223.809C44.1406 221.801 44.6935 219.862 45.2039 218.007C45.7143 216.153 46.2758 214.392 46.7777 212.699L48.3429 207.893C48.8703 206.396 49.4232 205.001 49.9166 203.691C50.41 202.38 50.9119 201.139 51.3967 200.075C51.8816 199.012 52.3069 197.966 52.6983 197.064C53.5489 195.286 54.2465 193.916 54.7058 192.989L55.2417 191.943L55.4374 191.62Z" fill="#455A64"/>
<path d="M24.7715 341.651C24.7715 341.651 24.7715 341.524 24.8566 341.268C24.9416 341.013 25.0352 340.613 25.1628 340.137L26.3707 335.799C27.417 332.005 28.9227 326.56 30.7942 319.84C32.6656 313.12 34.8178 305.064 37.1571 296.124C38.314 291.649 39.5219 286.954 40.7809 282.088C42.0399 277.222 43.2564 272.152 44.5494 266.98C45.8424 261.808 47.0163 256.772 48.1987 251.838C49.3811 246.904 50.4359 242.217 51.4908 237.717C53.5408 228.709 55.3442 220.577 56.8159 213.746C58.2875 206.915 59.4529 201.394 60.2781 197.583C60.6779 195.686 60.9926 194.18 61.2138 193.177C61.3244 192.692 61.4095 192.326 61.469 192.037C61.5286 191.748 61.5711 191.646 61.5711 191.646C61.5589 191.78 61.539 191.913 61.5115 192.045C61.4605 192.318 61.3924 192.7 61.2989 193.194C61.1032 194.223 60.814 195.746 60.4482 197.617L59.0446 204.576C58.4747 207.298 57.8367 210.394 57.1221 213.814C55.693 220.619 53.9236 228.785 51.8821 237.811C50.8528 242.311 49.7809 247.049 48.6155 251.94C47.4501 256.832 46.2252 261.902 44.9832 267.091C43.7412 272.28 42.4312 277.299 41.1978 282.19C39.9643 287.081 38.7223 291.76 37.5569 296.226C35.1836 305.166 32.9889 313.239 31.1004 319.925L28.5484 329.002C27.7743 331.664 27.1023 333.961 26.5579 335.807C26.0134 337.653 25.5711 339.116 25.2734 340.128C25.1288 340.605 25.0097 340.979 24.9331 341.243C24.8566 341.507 24.7715 341.651 24.7715 341.651Z" fill="#455A64"/>
<path d="M66.1646 191.73C66.1646 191.73 66.1646 191.858 66.2242 192.122L66.3688 193.296C66.4283 193.815 66.5049 194.453 66.5899 195.193C66.675 195.933 66.7005 196.826 66.7601 197.804C66.7601 198.298 66.8196 198.816 66.8451 199.361C66.8707 199.905 66.8451 200.484 66.8451 201.062V202.934C66.8451 203.58 66.7856 204.261 66.7601 204.958C66.7346 205.656 66.692 206.379 66.6495 207.119C66.607 207.859 66.5134 208.633 66.4368 209.424C66.3262 211.006 66.054 212.657 65.8414 214.409C65.314 217.888 64.6164 221.674 63.7232 225.714C62.83 229.755 61.7837 234.042 60.6949 238.559C59.606 243.076 58.4746 247.823 57.5389 252.782C56.6032 257.742 55.8376 262.914 55.14 268.23C54.4425 273.547 53.9406 278.728 53.3452 283.755C52.7497 288.782 52.2393 293.631 51.6438 298.216L50.7251 304.953C50.3678 307.123 50.0531 309.207 49.6958 311.282C49.3385 313.358 48.9728 315.281 48.5729 317.16C48.1731 319.04 47.7733 320.835 47.3735 322.545C46.9737 324.255 46.5228 325.871 46.0975 327.402C45.6722 328.934 45.1958 330.346 44.7875 331.656C44.5748 332.319 44.3877 332.966 44.1665 333.578C43.9453 334.191 43.7242 334.778 43.52 335.339C43.1032 336.453 42.7204 337.483 42.3716 338.401C41.623 340.222 40.968 341.6 40.5597 342.553L40.0663 343.625C39.9557 343.863 39.8877 343.982 39.8877 343.982C39.8877 343.982 39.8877 343.846 40.0238 343.599C40.1599 343.352 40.2875 342.978 40.4746 342.51C40.866 341.557 41.4869 340.162 42.176 338.342L43.2733 335.263L43.9113 333.51C44.124 332.898 44.3026 332.243 44.5068 331.579C44.9066 330.244 45.3574 328.823 45.7828 327.326L47.0247 322.477L48.1987 317.092C48.5814 315.212 48.9132 313.247 49.296 311.214C49.6788 309.181 49.951 307.063 50.2913 304.894C50.6315 302.725 50.8867 300.47 51.193 298.165C51.7629 293.555 52.3158 288.714 52.8943 283.704C53.4727 278.694 54.0087 273.496 54.6892 268.145C55.3697 262.795 56.1693 257.64 57.1051 252.663C58.0408 247.687 59.1892 242.94 60.2865 238.432C61.3839 233.923 62.4557 229.627 63.3574 225.604C64.2591 221.58 64.9737 217.795 65.5266 214.324C65.7478 212.623 66.0285 210.921 66.1476 209.356C66.2327 208.574 66.3007 207.808 66.3773 207.068C66.4538 206.328 66.4623 205.605 66.5049 204.907C66.5474 204.21 66.5985 203.546 66.607 202.891C66.6155 202.236 66.607 201.624 66.607 201.028C66.607 200.433 66.607 199.863 66.607 199.327C66.607 198.791 66.5559 198.272 66.5389 197.779C66.4879 196.8 66.4879 195.924 66.4113 195.176C66.3348 194.427 66.2837 193.789 66.2327 193.27C66.1816 192.751 66.1561 192.377 66.1306 192.096C66.134 191.974 66.1453 191.852 66.1646 191.73Z" fill="#455A64"/>
<path d="M62.3703 347.087C62.3316 346.958 62.3003 346.828 62.2768 346.695C62.2257 346.415 62.1492 346.032 62.0556 345.539C61.962 345.045 61.8514 344.39 61.7153 343.642C61.5792 342.893 61.4006 342.042 61.3155 341.09C61.2304 340.137 61.0773 339.023 60.9327 337.832C60.7881 336.641 60.7626 335.331 60.6605 333.936C60.6605 333.238 60.5754 332.506 60.5499 331.766C60.5244 331.026 60.5499 330.244 60.5499 329.444C60.5499 328.644 60.5499 327.836 60.5499 326.994C60.5499 326.152 60.618 325.293 60.6435 324.442C60.669 323.592 60.7201 322.656 60.7541 321.737C60.7881 320.818 60.9072 319.874 60.9752 318.913C61.1028 316.99 61.3495 315.008 61.5877 312.958C61.8259 310.908 62.1662 308.782 62.4384 306.595C62.7106 304.409 63.1529 302.172 63.5953 299.884C65.2966 290.705 67.5934 280.727 69.72 270.196C71.7151 260.294 73.2057 250.297 74.186 240.244C75.1047 230.972 75.4535 222.593 75.5726 215.575C75.5726 212.053 75.5726 208.863 75.5726 206.073C75.5726 203.282 75.4535 200.867 75.3684 198.893C75.2834 196.92 75.2068 195.397 75.1643 194.359C75.1643 193.857 75.1643 193.466 75.1643 193.185C75.1643 192.904 75.1643 192.777 75.1643 192.777C75.1643 192.777 75.1643 192.913 75.1643 193.177C75.1643 193.44 75.2153 193.857 75.2578 194.359C75.3259 195.388 75.4535 196.911 75.5386 198.885C75.6236 200.858 75.7427 203.266 75.8193 206.064C75.8958 208.863 75.9214 212.019 75.9044 215.575C75.8278 222.627 75.5045 231.023 74.6114 240.303C73.6487 250.374 72.1666 260.388 70.1709 270.306C68.0442 280.854 65.7049 290.824 64.0121 299.986C63.5698 302.265 63.221 304.511 62.8382 306.68C62.4554 308.85 62.1662 310.976 61.945 313.035C61.7238 315.093 61.4431 317.067 61.3155 318.989C61.2304 319.942 61.1539 320.878 61.0773 321.797C61.0008 322.715 60.9923 323.617 60.9497 324.493C60.9072 325.369 60.8817 326.237 60.8391 327.045V331.8C60.8391 332.54 60.9072 333.264 60.9412 333.961C61.0263 335.356 61.0263 336.666 61.1709 337.849C61.3155 339.031 61.4091 340.128 61.5112 341.115C61.6132 342.102 61.7579 342.953 61.8684 343.667L62.1747 345.564C62.2512 346.057 62.3023 346.415 62.3533 346.729C62.4044 347.044 62.3703 347.087 62.3703 347.087Z" fill="#455A64"/>
<path d="M81.4337 192.402C81.4337 192.402 81.4762 192.53 81.5528 192.785L81.8845 193.908L82.4034 195.754C82.6452 196.594 82.8439 197.446 82.9989 198.306C83.186 199.267 83.4497 200.33 83.6369 201.513C83.824 202.695 83.9857 203.98 84.1813 205.366C84.377 206.753 84.411 208.242 84.5386 209.824C84.6662 211.406 84.6662 213.073 84.6322 214.834C84.6322 218.348 84.3429 222.184 83.8921 226.293C83.4412 230.401 82.7352 234.757 81.9185 239.316L79.2475 253.624C78.3117 258.584 77.4951 263.739 76.755 269.038C76.015 274.338 75.411 279.519 74.9176 284.537C74.4242 289.556 74.0669 294.414 73.7777 299.041C73.4885 303.669 73.3099 308.067 73.2248 312.192C73.1397 316.318 73.0887 320.155 73.1057 323.659C73.1227 327.164 73.1737 330.337 73.2588 333.119C73.3439 335.9 73.446 338.299 73.5225 340.256C73.5991 342.212 73.6927 343.718 73.7437 344.764C73.7437 345.269 73.7607 345.66 73.7947 345.938C73.7947 346.21 73.7947 346.346 73.7947 346.346C73.7947 346.346 73.7947 346.21 73.7437 345.947L73.6501 344.773C73.5821 343.743 73.463 342.221 73.3524 340.264C73.2418 338.308 73.0972 335.909 73.0121 333.127C72.9271 330.346 72.8335 327.173 72.791 323.659C72.7484 320.146 72.791 316.31 72.859 312.184C72.9271 308.058 73.1227 303.677 73.3694 299.016C73.6161 294.354 73.9819 289.522 74.4838 284.495C74.9857 279.467 75.5641 274.287 76.3212 268.97C77.0783 263.654 77.8779 258.507 78.8221 253.548L81.5187 239.248C82.3694 234.689 83.0244 230.333 83.5263 226.25C84.0282 222.167 84.2664 218.33 84.3174 214.826C84.3174 213.073 84.2664 211.423 84.2579 209.832C84.2494 208.242 84.0367 206.779 83.9346 205.392C83.8325 204.005 83.5858 202.729 83.4327 201.547C83.2796 200.365 83.0074 199.31 82.8373 198.34C82.6671 197.37 82.4885 196.528 82.2758 195.788C82.0632 195.048 81.9271 194.452 81.7995 193.942C81.6719 193.432 81.5783 193.091 81.5102 192.802C81.4422 192.513 81.4337 192.402 81.4337 192.402Z" fill="#455A64"/>
<path d="M243.357 367.052L136.319 366.559C130.138 366.529 124.221 364.047 119.87 359.657C115.518 355.267 113.088 349.329 113.112 343.148L114.244 74.7988C114.273 68.614 116.758 62.6941 121.151 58.3407C125.544 53.9874 131.486 51.5571 137.671 51.5842L244.71 52.0776C247.771 52.091 250.799 52.7071 253.622 53.8908C256.444 55.0745 259.006 56.8027 261.161 58.9765C263.316 61.1503 265.022 63.7273 266.181 66.5604C267.34 69.3934 267.929 72.4269 267.916 75.4878L266.784 343.829C266.771 346.892 266.154 349.922 264.97 352.747C263.785 355.572 262.056 358.136 259.881 360.292C257.705 362.449 255.126 364.156 252.291 365.316C249.456 366.475 246.42 367.065 243.357 367.052Z" fill="#263238"/>
<path d="M243.638 59.606L222.882 59.5039C221.515 59.5308 220.215 60.0983 219.266 61.0822C218.318 62.066 217.798 63.3859 217.82 64.7525V68.5124C217.833 69.1894 217.712 69.8622 217.464 70.4924C217.216 71.1226 216.847 71.6978 216.377 72.1852C215.907 72.6726 215.346 73.0627 214.725 73.333C214.104 73.6034 213.436 73.7488 212.759 73.761L172.31 73.5739C170.944 73.536 169.648 72.9577 168.707 71.9659C167.766 70.974 167.257 69.6495 167.291 68.2828V64.5143C167.326 63.1476 166.816 61.8231 165.876 60.8312C164.935 59.8394 163.639 59.2611 162.272 59.2232H154.974L136.812 59.1467C134.667 59.1366 132.541 59.5491 130.556 60.3606C128.57 61.1721 126.764 62.3667 125.241 63.8762C123.717 65.3857 122.505 67.1806 121.675 69.1583C120.845 71.1361 120.413 73.258 120.403 75.4028L119.297 337.33C119.292 339.475 119.711 341.601 120.528 343.585C121.345 345.569 122.545 347.372 124.06 348.892C125.574 350.412 127.373 351.618 129.354 352.443C131.335 353.267 133.459 353.693 135.604 353.697L242.43 354.19C244.575 354.2 246.7 353.788 248.685 352.976C250.67 352.164 252.475 350.97 253.999 349.46C255.522 347.95 256.732 346.155 257.561 344.178C258.391 342.2 258.822 340.078 258.831 337.934L259.928 76.0408C259.943 73.8906 259.532 71.7588 258.721 69.7677C257.909 67.7766 256.712 65.9655 255.198 64.4383C253.685 62.9112 251.884 61.6982 249.9 60.8689C247.916 60.0396 245.788 59.6105 243.638 59.606Z" fill="#FAFAFA"/>
<path d="M134.277 87.4482C134.161 87.4448 134.051 87.3959 133.971 87.3121L132.346 85.6108C132.306 85.5724 132.275 85.526 132.255 85.4747C132.234 85.4234 132.225 85.3683 132.227 85.313C132.227 85.2574 132.239 85.2024 132.261 85.1513C132.283 85.1002 132.314 85.0539 132.354 85.0153L133.988 83.4586C134.027 83.419 134.073 83.3875 134.124 83.3661C134.175 83.3446 134.23 83.3335 134.286 83.3335C134.341 83.3335 134.396 83.3446 134.447 83.3661C134.498 83.3875 134.544 83.419 134.583 83.4586C134.623 83.4982 134.655 83.5452 134.676 83.597C134.698 83.6488 134.709 83.7044 134.709 83.7606C134.709 83.8167 134.698 83.8723 134.676 83.9242C134.655 83.976 134.623 84.023 134.583 84.0626L133.256 85.3216L134.592 86.7166C134.632 86.7562 134.663 86.8032 134.685 86.8551C134.706 86.9069 134.718 86.9625 134.718 87.0186C134.718 87.0748 134.706 87.1304 134.685 87.1822C134.663 87.234 134.632 87.2811 134.592 87.3206C134.55 87.3616 134.501 87.3939 134.447 87.4158C134.393 87.4377 134.335 87.4487 134.277 87.4482Z" fill="#263238"/>
<path d="M235.148 308.799H146.833C139.259 308.799 133.12 314.938 133.12 322.511V324.97C133.12 332.543 139.259 338.683 146.833 338.683H235.148C242.722 338.683 248.861 332.543 248.861 324.97V322.511C248.861 314.938 242.722 308.799 235.148 308.799Z" fill="#F3403F"/>
<path d="M177.227 320.274H179.915C180.363 320.251 180.811 320.32 181.232 320.475C181.653 320.631 182.037 320.871 182.363 321.18C182.688 321.489 182.947 321.861 183.124 322.274C183.301 322.686 183.392 323.13 183.392 323.579C183.392 324.027 183.301 324.471 183.124 324.884C182.947 325.296 182.688 325.668 182.363 325.977C182.037 326.286 181.653 326.526 181.232 326.682C180.811 326.838 180.363 326.906 179.915 326.883H177.227V320.274ZM179.881 326.279C180.249 326.3 180.616 326.246 180.962 326.119C181.308 325.993 181.624 325.797 181.891 325.544C182.159 325.291 182.372 324.987 182.517 324.649C182.663 324.311 182.738 323.947 182.738 323.579C182.738 323.211 182.663 322.846 182.517 322.508C182.372 322.17 182.159 321.866 181.891 321.613C181.624 321.36 181.308 321.165 180.962 321.038C180.616 320.912 180.249 320.857 179.881 320.878H177.925V326.279H179.881Z" fill="#FAFAFA"/>
<path d="M184.432 323.583C184.41 322.893 184.594 322.212 184.962 321.627C185.329 321.042 185.863 320.58 186.494 320.3C187.126 320.02 187.826 319.935 188.506 320.055C189.186 320.176 189.815 320.496 190.312 320.976C190.809 321.456 191.151 322.073 191.295 322.749C191.439 323.424 191.379 324.127 191.121 324.768C190.863 325.409 190.42 325.958 189.848 326.346C189.276 326.733 188.602 326.941 187.911 326.943C187.458 326.965 187.006 326.895 186.582 326.735C186.158 326.576 185.771 326.331 185.445 326.016C185.119 325.701 184.86 325.323 184.686 324.904C184.512 324.486 184.426 324.036 184.432 323.583ZM190.676 323.583C190.684 323.031 190.528 322.488 190.227 322.025C189.925 321.561 189.493 321.198 188.984 320.982C188.476 320.765 187.915 320.705 187.372 320.809C186.829 320.912 186.329 321.176 185.937 321.565C185.544 321.954 185.276 322.451 185.167 322.993C185.058 323.535 185.113 324.097 185.325 324.607C185.537 325.117 185.896 325.553 186.357 325.859C186.817 326.164 187.358 326.326 187.911 326.322C188.276 326.335 188.639 326.273 188.978 326.141C189.318 326.008 189.627 325.807 189.886 325.55C190.145 325.294 190.348 324.987 190.484 324.649C190.62 324.31 190.685 323.948 190.676 323.583Z" fill="#FAFAFA"/>
<path d="M198.451 320.274V326.884H197.881L193.627 321.525V326.884H192.921V320.274H193.5L197.753 325.634V320.274H198.451Z" fill="#FAFAFA"/>
<path d="M205.273 326.28V326.884H200.603V320.274H205.129V320.878H201.301V323.226H204.703V323.822H201.301V326.28H205.273Z" fill="#FAFAFA"/>
<path d="M150.482 195.822H146.884V194.121H156.088V195.822H152.49V204.967H150.482V195.822Z" fill="#F3403F"/>
<path d="M165.556 200.237V204.984H163.625V200.493C163.625 199.021 162.893 198.306 161.66 198.306C160.282 198.306 159.346 199.157 159.346 200.799V204.984H157.415V193.475H159.346V197.685C159.709 197.33 160.14 197.053 160.614 196.871C161.089 196.69 161.595 196.608 162.102 196.631C164.084 196.597 165.556 197.728 165.556 200.237Z" fill="#F3403F"/>
<path d="M174.939 200.118V204.967H173.118V203.954C172.814 204.345 172.415 204.651 171.96 204.846C171.505 205.041 171.008 205.118 170.515 205.069C168.627 205.069 167.427 204.031 167.427 202.593C167.427 201.156 168.363 200.135 170.872 200.135H173.033V200.007C173.033 198.876 172.353 198.212 170.975 198.212C170.052 198.2 169.153 198.499 168.423 199.063L167.665 197.66C168.69 196.949 169.916 196.588 171.162 196.63C173.561 196.596 174.939 197.728 174.939 200.118ZM173.033 202.372V201.419H171.034C169.716 201.419 169.333 201.913 169.333 202.517C169.333 203.121 169.928 203.665 170.915 203.665C171.36 203.702 171.804 203.597 172.185 203.365C172.566 203.132 172.863 202.785 173.033 202.372Z" fill="#F3403F"/>
<path d="M185.563 200.237V204.984H183.624V200.492C183.624 199.021 182.901 198.306 181.659 198.306C180.281 198.306 179.354 199.157 179.354 200.799V204.984H177.414V196.707H179.26V197.779C179.62 197.386 180.062 197.078 180.554 196.877C181.047 196.675 181.578 196.585 182.11 196.613C184.092 196.596 185.563 197.728 185.563 200.237Z" fill="#F3403F"/>
<path d="M191.399 201.42L189.961 202.789V204.976H188.021V193.475H189.961V200.408L193.968 196.69H196.29L192.836 200.161L196.613 204.967H194.299L191.399 201.42Z" fill="#F3403F"/>
<path d="M209.884 196.69L206.013 205.63C205.256 207.502 204.201 208.072 202.823 208.072C202.02 208.089 201.236 207.82 200.611 207.315L201.385 205.894C201.769 206.259 202.277 206.463 202.806 206.464C203.487 206.464 203.895 206.141 204.261 205.316L204.405 204.992L200.798 196.69H202.806L205.409 202.806L208.029 196.69H209.884Z" fill="#F3403F"/>
<path d="M210.173 200.824C210.143 199.946 210.375 199.08 210.841 198.335C211.306 197.59 211.984 197.002 212.786 196.645C213.589 196.288 214.48 196.179 215.345 196.332C216.209 196.485 217.009 196.893 217.64 197.504C218.271 198.114 218.706 198.899 218.888 199.759C219.07 200.618 218.991 201.512 218.661 202.326C218.331 203.14 217.765 203.837 217.037 204.327C216.308 204.817 215.449 205.079 214.571 205.077C213.997 205.109 213.423 205.022 212.885 204.822C212.347 204.621 211.856 204.311 211.443 203.912C211.03 203.512 210.704 203.032 210.485 202.501C210.267 201.969 210.16 201.399 210.173 200.824ZM217.038 200.824C217.02 200.343 216.86 199.877 216.579 199.486C216.299 199.094 215.909 198.794 215.459 198.621C215.009 198.449 214.519 198.413 214.048 198.518C213.578 198.622 213.149 198.863 212.814 199.209C212.479 199.556 212.253 199.993 212.165 200.466C212.076 200.94 212.129 201.429 212.316 201.873C212.503 202.317 212.817 202.696 213.218 202.963C213.619 203.231 214.089 203.374 214.571 203.376C214.904 203.384 215.236 203.322 215.544 203.196C215.852 203.069 216.131 202.88 216.363 202.64C216.595 202.4 216.774 202.115 216.89 201.803C217.007 201.49 217.057 201.157 217.038 200.824Z" fill="#F3403F"/>
<path d="M228.854 196.69V204.967H227.008V203.912C226.677 204.289 226.266 204.589 225.806 204.789C225.346 204.989 224.847 205.084 224.345 205.069C222.218 205.069 220.781 203.912 220.781 201.42V196.69H222.72V201.156C222.72 202.653 223.426 203.368 224.651 203.368C225.876 203.368 226.914 202.517 226.914 200.875V196.69H228.854Z" fill="#F3403F"/>
<path d="M231.031 203.861C231.032 203.7 231.066 203.541 231.13 203.393C231.194 203.245 231.287 203.111 231.403 203C231.52 202.889 231.658 202.802 231.809 202.746C231.96 202.689 232.121 202.663 232.282 202.67C232.6 202.67 232.905 202.797 233.13 203.022C233.355 203.246 233.481 203.552 233.481 203.87C233.481 204.188 233.355 204.493 233.13 204.718C232.905 204.943 232.6 205.069 232.282 205.069C232.12 205.075 231.958 205.048 231.806 204.99C231.655 204.932 231.517 204.843 231.4 204.731C231.283 204.618 231.19 204.483 231.127 204.333C231.064 204.184 231.031 204.023 231.031 203.861ZM231.142 194.121H233.43L233.047 201.369H231.508L231.142 194.121Z" fill="#F3403F"/>
<path d="M191.764 177.899C204.064 177.899 214.035 167.928 214.035 155.629C214.035 143.329 204.064 133.358 191.764 133.358C179.465 133.358 169.494 143.329 169.494 155.629C169.494 167.928 179.465 177.899 191.764 177.899Z" fill="#F3403F"/>
<path d="M202.73 146.229C203.011 146.459 198.851 152.056 193.441 158.725L190.157 162.706L189.706 163.251L189.23 162.757C184.977 158.393 182.11 155.161 182.314 154.957C182.518 154.753 185.759 157.636 190.115 161.864L189.196 161.958L192.411 157.934C197.822 151.222 202.441 145.999 202.73 146.229Z" fill="white"/>
<path d="M223.401 146.646C222.737 144.306 219.7 144.536 219.7 144.536L219.777 146.161C221.538 145.854 222.626 147.913 222.626 147.913L223.401 146.646Z" fill="#F3403F"/>
<path d="M158.886 151.562C158.231 149.223 155.186 149.444 155.186 149.444L155.271 151.077C157.032 150.771 158.121 152.83 158.121 152.83L158.886 151.562Z" fill="#E0E0E0"/>
<path d="M194.419 119.195C197.949 120.267 200.144 116.201 200.144 116.201L198 114.976C196.945 117.468 193.423 117.179 193.423 117.179L194.419 119.195Z" fill="#E0E0E0"/>
<path d="M174.845 123.576C173.203 123.754 173.007 125.813 173.007 125.813L174.105 125.941C174.105 124.733 175.61 124.239 175.61 124.239L174.845 123.576Z" fill="#F3403F"/>
<path d="M242.506 138.649C242.745 137.016 240.805 136.31 240.805 136.31L240.405 137.339C241.579 137.637 241.69 139.219 241.69 139.219L242.506 138.649Z" fill="#E0E0E0"/>
<path d="M184.423 102.08C184.662 100.446 182.722 99.7402 182.722 99.7402L182.322 100.778C183.496 101.076 183.607 102.649 183.607 102.649L184.423 102.08Z" fill="#F3403F"/>
<path d="M143.864 128.424C143.574 130.976 146.96 131.606 146.96 131.606L147.573 129.905C145.54 129.717 145.25 127.353 145.25 127.353L143.864 128.424Z" fill="#F3403F"/>
<path d="M219.369 119.144C221.019 119.237 221.546 117.238 221.546 117.238L220.483 116.932C220.287 118.123 218.722 118.37 218.722 118.37L219.369 119.144Z" fill="#F3403F"/>
<path d="M228.377 125.864C227.935 125.988 227.474 126.031 227.016 125.992C226.558 126.032 226.097 125.989 225.655 125.864C226.553 125.683 227.479 125.683 228.377 125.864Z" fill="#E0E0E0"/>
<path d="M229.823 122.164C229.993 123.074 229.993 124.009 229.823 124.92C229.642 124.01 229.642 123.073 229.823 122.164Z" fill="#E0E0E0"/>
<path d="M231.354 125.77C231.797 125.646 232.258 125.603 232.716 125.643C233.173 125.602 233.634 125.645 234.077 125.77C233.178 125.952 232.253 125.952 231.354 125.77Z" fill="#E0E0E0"/>
<path d="M229.917 129.479C229.735 128.567 229.735 127.627 229.917 126.715C230.087 127.629 230.087 128.566 229.917 129.479Z" fill="#E0E0E0"/>
<path d="M232.111 127.931C232.06 127.973 231.797 127.752 231.525 127.437C231.252 127.123 231.091 126.816 231.142 126.774C231.193 126.731 231.465 126.944 231.729 127.267C231.992 127.591 232.171 127.837 232.111 127.931Z" fill="#E0E0E0"/>
<path d="M231.984 123.678C232.035 123.737 231.856 124.001 231.575 124.282C231.295 124.562 231.031 124.75 230.98 124.699C230.929 124.647 231.107 124.375 231.388 124.095C231.669 123.814 231.933 123.678 231.984 123.678Z" fill="#E0E0E0"/>
<path d="M228.871 124.758C228.82 124.817 228.564 124.681 228.301 124.46C228.037 124.239 227.867 124.018 227.909 123.967C227.952 123.916 228.207 124.043 228.471 124.256C228.734 124.469 228.913 124.707 228.871 124.758Z" fill="#E0E0E0"/>
<path d="M228.743 126.612C228.802 126.655 228.641 126.919 228.385 127.199C228.13 127.48 227.884 127.659 227.833 127.608C227.781 127.557 227.935 127.293 228.19 127.021C228.445 126.749 228.692 126.561 228.743 126.612Z" fill="#E0E0E0"/>
<path d="M154.268 118.276C153.369 118.458 152.444 118.458 151.545 118.276C151.988 118.152 152.449 118.109 152.906 118.149C153.364 118.108 153.825 118.151 154.268 118.276Z" fill="#F3403F"/>
<path d="M155.714 114.576C155.895 115.488 155.895 116.428 155.714 117.34C155.532 116.428 155.532 115.488 155.714 114.576Z" fill="#F3403F"/>
<path d="M157.253 118.191C158.152 118.009 159.077 118.009 159.976 118.191C159.077 118.372 158.152 118.372 157.253 118.191Z" fill="#F3403F"/>
<path d="M155.807 121.891C155.626 120.982 155.626 120.045 155.807 119.135C155.989 120.045 155.989 120.982 155.807 121.891Z" fill="#F3403F"/>
<path d="M329.938 309.811C331.219 310.422 332.364 311.285 333.304 312.35C334.243 313.414 334.959 314.656 335.407 316.003C336.289 318.71 336.536 321.582 336.13 324.399C335.518 329.844 332.422 335.339 329.095 339.711C324.51 335.713 323.456 328.729 323.141 325.156C322.647 319.508 325.182 308.994 329.946 309.845" fill="#F3403F"/>
<path d="M334.42 348.677C334.107 347.121 334.211 345.509 334.722 344.007C335.233 342.504 336.132 341.163 337.329 340.119C338.54 339.096 339.944 338.326 341.457 337.852C342.971 337.379 344.563 337.213 346.142 337.363C347.605 337.474 349.179 337.899 350.012 339.065C350.37 339.651 350.564 340.322 350.575 341.009C350.585 341.695 350.411 342.372 350.072 342.969C349.379 344.154 348.384 345.135 347.188 345.81C343.216 348.303 338.911 349.987 334.428 348.643" fill="#F3403F"/>
<path d="M328.542 365.367C328.564 364.992 328.618 364.619 328.704 364.253C328.848 363.462 329.035 362.449 329.257 361.224C329.771 357.859 330.825 354.599 332.378 351.569C333.995 348.542 336.388 346 339.311 344.203C340.201 343.677 341.149 343.257 342.136 342.952C342.484 342.833 342.765 342.79 342.986 342.739C343.207 342.688 343.275 342.688 343.275 342.739C341.009 343.474 338.912 344.652 337.107 346.206C335.302 347.761 333.824 349.659 332.761 351.79C331.231 354.79 330.156 358.001 329.571 361.318C329.291 362.585 329.061 363.615 328.891 364.312C328.805 364.673 328.689 365.026 328.542 365.367Z" fill="#263238"/>
<path d="M328.703 317.985C328.743 318.147 328.763 318.312 328.763 318.479C328.763 318.836 328.814 319.329 328.848 319.882C328.907 321.099 328.984 322.86 329.052 325.046C329.188 329.41 329.299 335.441 329.273 342.059C329.248 348.677 329.086 354.751 328.899 359.115C328.814 361.301 328.729 363.062 328.652 364.278C328.61 364.857 328.584 365.316 328.559 365.682C328.533 366.048 328.559 365.682 328.559 365.682C328.618 365.197 328.474 365.997 328.474 365.682C328.474 365.367 328.474 364.831 328.474 364.27C328.474 363.002 328.542 361.25 328.593 359.106C328.703 354.742 328.822 348.72 328.856 342.093C328.89 335.466 328.814 329.41 328.746 325.08C328.746 322.936 328.686 321.175 328.661 319.908C328.661 319.329 328.661 318.87 328.661 318.504C328.663 318.33 328.677 318.157 328.703 317.985Z" fill="#F3403F"/>
<path d="M326.492 351.986C325.936 348.688 324.603 345.568 322.604 342.887C320.604 340.205 317.994 338.038 314.991 336.564C313.46 335.832 311.461 335.347 310.202 336.487C308.943 337.627 309.215 339.677 309.836 341.268C311.184 344.555 313.474 347.369 316.418 349.356C319.363 351.344 322.829 352.416 326.381 352.437" fill="#F3403F"/>
<path d="M315.731 341.728C316.071 341.836 316.399 341.978 316.71 342.153C317.088 342.325 317.454 342.521 317.807 342.74C318.287 342.998 318.753 343.282 319.202 343.59C319.761 343.962 320.297 344.366 320.81 344.798C321.406 345.281 321.974 345.798 322.511 346.347C323.745 347.606 324.832 349.002 325.752 350.506C326.644 352.027 327.357 353.646 327.879 355.33C328.105 356.064 328.286 356.811 328.423 357.567C328.553 358.222 328.644 358.883 328.695 359.549C328.781 360.161 328.747 360.714 328.772 361.199C328.8 361.616 328.8 362.033 328.772 362.45C328.765 362.804 328.725 363.157 328.653 363.504C328.559 363.504 328.713 361.99 328.449 359.583C328.378 358.926 328.273 358.273 328.134 357.626C328.006 356.929 327.785 356.197 327.564 355.432C327.032 353.784 326.319 352.201 325.437 350.711C324.537 349.231 323.479 347.853 322.282 346.602C321.76 346.054 321.209 345.534 320.631 345.045C320.104 344.569 319.559 344.194 319.075 343.82C317.075 342.434 315.689 341.804 315.731 341.728Z" fill="#263238"/>
</g>
<defs>
<clipPath id="clip0_9_5">
<rect width="367" height="372" fill="white"/>
</clipPath>
</defs>
</svg>
